<?xml version="1.0" encoding="utf-8"?><svg viewBox="0 0 140 230" xmlns="http://www.w3.org/2000/svg" xmlns:xlink="http://www.w3.org/1999/xlink"><style>:root>svg{display:none}:root>svg:target{display:block}</style><svg fill="none" viewBox="0 0 64 64" id="arrow" xmlns="http://www.w3.org/2000/svg"><circle cx="32" cy="32" r="32" fill="#fff"/><path d="m43.694 30.478.681.625.585-.638-.599-.626-.667.64Zm-7.296-8.965a.924.924 0 1 0-1.336 1.278l1.336-1.278Zm-1.35 17.028a.924.924 0 1 0 1.363 1.25l-1.363-1.25ZM20.003 41.7v-3.222h-1.85V41.7h1.85Zm7.075-10.297h16.616v-1.85H27.078v1.85Zm17.284-1.564-7.964-8.326-1.336 1.278 7.964 8.326 1.335-1.278Zm-1.35.015-7.964 8.687 1.363 1.25 7.964-8.688-1.363-1.25Zm-23.01 8.624a7.075 7.075 0 0 1 7.076-7.075v-1.85a8.924 8.924 0 0 0-8.924 8.925h1.849Z" fill="#1B1B1B"/></svg><svg fill="none" viewBox="0 0 21 20" id="arrow2" xmlns="http://www.w3.org/2000/svg"><path d="M4.233 9.984h12.492M11.736 4.99l5.03 5.01-5.03 5.01" stroke="#1B1B1B" stroke-linecap="round" stroke-linejoin="round"/></svg><svg fill="none" viewBox="0 0 16 16" id="arrow3" xmlns="http://www.w3.org/2000/svg"><path d="m5.598 12.8 4.8-4.8-4.8-4.8" stroke="#1B1B1B" stroke-width=".8" stroke-linecap="round" stroke-linejoin="round"/></svg><svg fill="none" viewBox="0 0 16 16" id="arrow3-str" xmlns="http://www.w3.org/2000/svg"><path d="m5.598 12.8 4.8-4.8-4.8-4.8"/></svg><svg fill="none" viewBox="0 0 25 25" id="bell" xmlns="http://www.w3.org/2000/svg"><path d="M12.945 3.486v1M7.445 10.987v-1a5.5 5.5 0 0 1 5.5-5.5v0a5.5 5.5 0 0 1 5.5 5.5v1" stroke="#1B1B1B" stroke-width="1.2" stroke-linecap="round" stroke-linejoin="round"/><path d="M18.446 10.987a8.199 8.199 0 0 0 2.359 5.658.495.495 0 0 1-.355.842H5.441a.496.496 0 0 1-.354-.842 8.199 8.199 0 0 0 2.359-5.658" stroke="#1B1B1B" stroke-width="1.2" stroke-linecap="round" stroke-linejoin="round"/><path d="M10.224 17.487a2.74 2.74 0 1 0 5.452 0" stroke="#1B1B1B" stroke-width="1.2" stroke-linecap="round" stroke-linejoin="round"/></svg><svg fill="none" viewBox="0 0 24 24" id="burger" xmlns="http://www.w3.org/2000/svg"><path d="M3 5.994h18M17 11.994H3M3 17.994h10" stroke="#1D2B4B" stroke-linecap="round" stroke-linejoin="round"/></svg><svg viewBox="0 0 448 512" id="check" xmlns="http://www.w3.org/2000/svg"><!--!Font Awesome Free 6.5.1 by @fontawesome - https://fontawesome.com License - https://fontawesome.com/license/free Copyright 2023 Fonticons, Inc.--><path fill="#fff" d="M438.6 105.4c12.5 12.5 12.5 32.8 0 45.3l-256 256c-12.5 12.5-32.8 12.5-45.3 0l-128-128c-12.5-12.5-12.5-32.8 0-45.3s32.8-12.5 45.3 0L160 338.7l233.4-233.3c12.5-12.5 32.8-12.5 45.3 0z"/></svg><svg fill="none" viewBox="0 0 21 21" id="check2" xmlns="http://www.w3.org/2000/svg"><path d="M9.457 18.17a.394.394 0 0 1-.29-.127L1.364 9.6a.394.394 0 0 1 .289-.662h3.757a.395.395 0 0 1 .298.136l2.608 3c.282-.602.828-1.605 1.786-2.828 1.415-1.808 4.049-4.466 8.554-6.866a.394.394 0 0 1 .428.66c-.017.013-1.755 1.38-3.754 3.886-1.84 2.306-4.286 6.076-5.49 10.944a.394.394 0 0 1-.382.3Z" fill="#1B1B1B"/></svg><svg fill="none" viewBox="0 0 24 24" id="close" xmlns="http://www.w3.org/2000/svg"><path d="M17.996 6 6.003 18M6 6.004l12 11.993" stroke="#1D2B4B" stroke-linecap="round" stroke-linejoin="round"/></svg><svg fill="none" viewBox="0 0 24 24" id="close-str" xmlns="http://www.w3.org/2000/svg"><path d="M17.996 6 6.003 18M6 6.004l12 11.993"/></svg><svg viewBox="0 0 16 17" id="cursor" xmlns="http://www.w3.org/2000/svg"><path d="m.594 2.414 3.722 13.058c.297 1.041 1.713 1.214 2.253.275l2.667-4.637a.408.408 0 0 1 .218-.181l5.072-1.797c1.027-.364 1.1-1.776.117-2.246L2.311.986C1.356.529.305 1.402.594 2.414Z"/></svg><svg fill="none" viewBox="0 0 126 230" id="decor" xmlns="http://www.w3.org/2000/svg"><path d="M1.66.987c22.88-.509 77.593 34.44 70.551 74.066-1.995 11.223-19.878 26.207-33.268 16.683-17.857-12.701 7.388-30.272 21.364-29.943 36.817.867 61.652 40.45 64.552 69.618 2.435 24.495-9.073 48.247-22.935 67.919-6.503 9.227-16.595 14.29-23.427 22.833-10.57 13.216 10.925.927 20.707-.644 19.987-3.21-12.69 1.08-19.573 2.224-11.355 1.886-10.283-24.487-11.69-34.518" stroke="#1B1B1B" stroke-width="1.6" stroke-linecap="round"/></svg><svg fill="none" viewBox="0 0 19 19" id="dialog" xmlns="http://www.w3.org/2000/svg"><path d="M.6 9.5a8.9 8.9 0 0 1 17.8 0v8.9H9.5A8.9 8.9 0 0 1 .6 9.5Z" stroke="#1B1B1B" stroke-width="1.2"/><defs><clipPath id="ama"><path d="M0 9.5a9.5 9.5 0 1 1 19 0V19H9.5A9.5 9.5 0 0 1 0 9.5Z" fill="#fff"/></clipPath></defs></svg><svg fill="none" viewBox="0 0 140 140" id="done" xmlns="http://www.w3.org/2000/svg"><path fill-rule="evenodd" clip-rule="evenodd" d="M14.92 67.692a55.124 55.124 0 0 0 109.43 11.502 55.12 55.12 0 0 0-41.765-62.862 55.125 55.125 0 0 0-39.388 5.497.886.886 0 0 1-1.2-.326.865.865 0 0 1 .324-1.19 56.875 56.875 0 1 1-12.737 9.67.865.865 0 0 1 1.232.007.886.886 0 0 1-.008 1.243 55.125 55.125 0 0 0-15.887 36.46Z" fill="#1B1B1B"/><path d="M49 75.688 64.91 92.75c7.485-22.365 13.72-32.179 27.84-45.5" stroke="#37D71D" stroke-width="2.1" stroke-linecap="round" stroke-linejoin="round"/></svg><svg fill="none" viewBox="0 0 25 24" id="globe" xmlns="http://www.w3.org/2000/svg"><path d="M13 22C7.486 22 3 17.514 3 12m10 10c5.514 0 10-4.486 10-10M13 22c2.429 0 5.145-4.486 5.145-10S15.43 2 13 2m0 20c-2.429 0-5.145-4.486-5.145-10S10.57 2 13 2m0 20V2M3 12C3 6.486 7.486 2 13 2M3 12h20M13 2c5.514 0 10 4.486 10 10M5.647 5.23C7.476 6.4 10.095 7.227 13 7.227c2.905 0 5.524-.827 7.353-1.999m0 13.542c-1.829-1.172-4.448-1.999-7.353-1.999-2.905 0-5.524.827-7.353 1.999"/></svg><svg viewBox="0 0 20 20" id="help" xmlns="http://www.w3.org/2000/svg"><path fill-rule="evenodd" clip-rule="evenodd" d="M10 2.583a7.417 7.417 0 1 0 0 14.833 7.417 7.417 0 0 0 0-14.833ZM1.584 10a8.417 8.417 0 1 1 16.833 0 8.417 8.417 0 0 1-16.834 0Z"/><path fill-rule="evenodd" clip-rule="evenodd" d="M8.563 9.375a.5.5 0 0 1 .5-.5H10a.5.5 0 0 1 .5.5v3.042h.438a.5.5 0 1 1 0 1H10a.5.5 0 0 1-.5-.5V9.875h-.438a.5.5 0 0 1-.5-.5ZM9.373 6.375a.708.708 0 1 0 .001-.001"/></svg><svg fill="none" viewBox="0 0 32 32" id="link" xmlns="http://www.w3.org/2000/svg"><path d="M26.236 11.506V5.505h-6M17.235 14.505l9-9M27.735 17.501v3a7.5 7.5 0 0 1-7.5 7.5h-9a7.5 7.5 0 0 1-7.5-7.5v-9a7.5 7.5 0 0 1 7.5-7.5h3"/></svg><svg viewBox="0 0 32 32" id="linkedin" xmlns="http://www.w3.org/2000/svg"><path d="M5.138 25.586h4.708V10.662H5.138v14.924ZM5.99 8.132c.443.298.964.46 1.499.462a2.669 2.669 0 0 0 2.52-1.654c.136-.33.203-.684.198-1.041a2.694 2.694 0 0 0-1.664-2.492 2.708 2.708 0 0 0-2.944.576 2.696 2.696 0 0 0 .392 4.149ZM22.493 25.6h4.706l.002-9.233c0-4.557-2.838-6.113-5.465-6.113-2.429 0-4.02 1.57-4.475 2.487H17.2v-2.068h-4.527V25.6h4.708v-8.092c0-2.157 1.37-3.208 2.766-3.208 1.322 0 2.346.743 2.346 3.147V25.6Z"/></svg><svg fill="none" viewBox="0 0 29 28" id="share-X" xmlns="http://www.w3.org/2000/svg"><rect x=".633" width="27.634" height="27.634" rx="13.817" fill="#F2F1F1"/><path d="M17.527 9h1.611l-3.518 4.244L19.774 19H16.51l-2.543-3.489L11.042 19H9.43l3.773-4.533L9.219 9h3.349l2.31 3.2 2.65-3.2Zm-.572 8.978h.89L12.08 9.956h-.975l5.85 8.022Z" fill="#757575"/></svg><svg fill="none" viewBox="0 0 29 28" id="share-facebook" xmlns="http://www.w3.org/2000/svg"><rect x=".906" width="27.634" height="27.634" rx="13.817" fill="#F2F1F1"/><path d="M17.114 9.992h1.217V8.085C18.12 8.06 17.399 8 16.558 8c-1.755 0-2.957.993-2.957 2.82v1.68h-1.937v2.133h1.937V20h2.374v-5.367h1.858l.295-2.132h-2.154v-1.47c0-.617.185-1.039 1.14-1.039Z" fill="#757575"/></svg><svg fill="none" viewBox="0 0 28 28" id="share-linkedin" xmlns="http://www.w3.org/2000/svg"><rect x=".266" width="27.634" height="27.634" rx="13.817" fill="#F2F1F1"/><path d="M20.001 19h.003v-4.345c0-2.126-.45-3.763-2.894-3.763-1.174 0-1.962.655-2.284 1.277h-.034V11.09h-2.317V19h2.412v-3.917c0-1.031.193-2.028 1.448-2.028 1.238 0 1.256 1.177 1.256 2.094V19h2.41ZM9 10.892h2.317V19H9v-8.108ZM10.158 7.996C9.518 7.996 9 8.513 9 9.15s.519 1.164 1.158 1.164c.64 0 1.159-.528 1.159-1.164 0-.636-.52-1.153-1.159-1.153Z" fill="#757575"/></svg><svg fill="none" viewBox="0 0 28 28" id="share-mail" xmlns="http://www.w3.org/2000/svg"><rect width="27.634" height="27.634" rx="13.817" fill="#F2F1F1"/><path d="M7.04 10.136v-.065C7.04 9.48 7.518 9 8.11 9h11.786c.592 0 1.072.48 1.072 1.071V17.93c0 .591-.48 1.071-1.072 1.071H8.11c-.591 0-1.07-.48-1.07-1.071v-7.793Z" fill="#757575"/><path d="m14.61 14.494-.284-.412.283.412Zm-7.07-4.358v-.065h-1v.065h1Zm12.928-.065v.065h1v-.065h-1ZM19.896 8.5H8.11v1h11.786v-1ZM6.54 10.136v7.793h1v-7.793h-1ZM8.11 19.5h11.786v-1H8.11v1Zm13.358-1.571v-7.793h-1v7.793h1Zm-.783-8.205-6.359 4.358.566.824 6.358-4.357-.565-.825Zm-7.005 4.358L7.322 9.724l-.566.825 6.359 4.357.565-.824Zm6.216 5.418c.868 0 1.572-.704 1.572-1.571h-1a.571.571 0 0 1-.572.571v1ZM6.54 17.929c0 .867.704 1.571 1.571 1.571v-1a.571.571 0 0 1-.57-.571h-1Zm14.929-7.858c0-.867-.704-1.571-1.572-1.571v1c.316 0 .572.256.572.571h1Zm-7.142 4.01a.572.572 0 0 1-.646 0l-.565.825a1.572 1.572 0 0 0 1.777 0l-.566-.824Zm-6.787-4.01c0-.315.256-.571.571-.571v-1c-.867 0-1.57.704-1.57 1.571h1Z" fill="#F2F1F1"/></svg><svg fill="none" viewBox="0 0 44 44" id="share1" xmlns="http://www.w3.org/2000/svg"><rect width="44" height="44" rx="22" fill="#1B1B1B"/><path d="M28.996 19.002v-4h-4M22.996 21.002l6-6M29.996 23.002v2a5 5 0 0 1-5 5h-6a5 5 0 0 1-5-5v-6a5 5 0 0 1 5-5h2" stroke="#fff" stroke-width="1.2" stroke-linecap="round" stroke-linejoin="round"/></svg><svg fill="none" viewBox="0 0 44 44" id="share2" xmlns="http://www.w3.org/2000/svg"><rect width="44" height="44" rx="22" fill="#1B1B1B"/><path d="M30.82 18.083s-.175-1.24-.716-1.786c-.686-.717-1.452-.72-1.804-.763-2.517-.182-6.297-.182-6.297-.182h-.006s-3.78 0-6.297.182c-.352.043-1.118.046-1.803.763-.542.545-.714 1.786-.714 1.786S13 19.543 13 20.998v1.364c0 1.455.18 2.914.18 2.914s.175 1.241.713 1.786c.685.717 1.585.693 1.986.77 1.442.137 6.121.18 6.121.18s3.783-.008 6.3-.187c.352-.042 1.118-.046 1.803-.763.542-.545.718-1.786.718-1.786S31 23.821 31 22.362v-1.364c0-1.456-.18-2.915-.18-2.915Zm-10.68 5.935v-5.06l4.862 2.539-4.862 2.52Z" fill="#fff"/></svg><svg fill="none" viewBox="0 0 44 44" id="share3" xmlns="http://www.w3.org/2000/svg"><rect width="44" height="44" rx="22" fill="#1B1B1B"/><path d="M14.256 29.99h3.573V18.664h-3.573V29.99ZM14.903 16.744c.336.226.731.348 1.137.35a2.024 2.024 0 0 0 1.913-1.255c.103-.25.154-.52.15-.79a2.044 2.044 0 0 0-1.263-1.892 2.055 2.055 0 0 0-2.235.438 2.045 2.045 0 0 0 .298 3.149ZM27.427 30h3.571L31 22.994c0-3.459-2.154-4.64-4.147-4.64-1.844 0-3.052 1.191-3.397 1.888h-.046v-1.57h-3.436V30h3.573v-6.142c0-1.637 1.04-2.434 2.1-2.434 1.003 0 1.78.564 1.78 2.388V30Z" fill="#fff"/></svg><svg fill="none" viewBox="0 0 23 23" id="star" xmlns="http://www.w3.org/2000/svg"><path d="m11.154 1.86 2.872 5.818 6.423.939-4.648 4.526 1.097 6.395-5.744-3.02-5.744 3.02 1.096-6.395L1.86 8.617l6.423-.939 2.872-5.819Z" fill="#37D71D" stroke="#37D71D" stroke-width="2.091" stroke-linecap="round" stroke-linejoin="round"/></svg><svg viewBox="0 0 32 32" id="youtube" xmlns="http://www.w3.org/2000/svg"><path d="M28.544 10.877s-.25-1.765-1.02-2.54c-.975-1.02-2.065-1.025-2.565-1.085-3.58-.26-8.955-.26-8.955-.26h-.01s-5.375 0-8.955.26c-.5.06-1.59.065-2.565 1.085-.77.775-1.015 2.54-1.015 2.54s-.26 2.075-.26 4.145v1.94c0 2.07.255 4.145.255 4.145s.25 1.765 1.015 2.54c.975 1.02 2.255.985 2.825 1.095 2.05.195 8.705.255 8.705.255s5.38-.01 8.96-.265c.5-.06 1.59-.065 2.565-1.085.77-.775 1.02-2.54 1.02-2.54s.255-2.07.255-4.145v-1.94c0-2.07-.255-4.145-.255-4.145Zm-15.19 8.44v-7.195l6.915 3.61-6.915 3.585Z"/></svg></svg>