<?xml version="1.0" encoding="utf-8"?><svg viewBox="0 0 64 64" xmlns="http://www.w3.org/2000/svg" xmlns:xlink="http://www.w3.org/1999/xlink"><style>:root>svg{display:none}:root>svg:target{display:block}</style><svg fill="none" viewBox="0 0 64 64" id="arrow" xmlns="http://www.w3.org/2000/svg"><circle cx="32" cy="32" r="32" fill="#fff"/><path d="m43.694 30.478.681.625.585-.638-.599-.626-.667.64Zm-7.296-8.965a.924.924 0 1 0-1.336 1.278l1.336-1.278Zm-1.35 17.028a.924.924 0 1 0 1.363 1.25l-1.363-1.25ZM20.003 41.7v-3.222h-1.85V41.7h1.85Zm7.075-10.297h16.616v-1.85H27.078v1.85Zm17.284-1.564-7.964-8.326-1.336 1.278 7.964 8.326 1.335-1.278Zm-1.35.015-7.964 8.687 1.363 1.25 7.964-8.688-1.363-1.25Zm-23.01 8.624a7.075 7.075 0 0 1 7.076-7.075v-1.85a8.924 8.924 0 0 0-8.924 8.925h1.849Z" fill="#1B1B1B"/></svg><svg fill="none" viewBox="0 0 21 20" id="arrow2" xmlns="http://www.w3.org/2000/svg"><path d="M4.233 9.984h12.492M11.736 4.99l5.03 5.01-5.03 5.01" stroke="#1B1B1B" stroke-linecap="round" stroke-linejoin="round"/></svg><svg fill="none" viewBox="0 0 24 24" id="burger" xmlns="http://www.w3.org/2000/svg"><path d="M3 5.994h18M17 11.994H3M3 17.994h10" stroke="#1D2B4B" stroke-linecap="round" stroke-linejoin="round"/></svg><svg viewBox="0 0 448 512" id="check" xmlns="http://www.w3.org/2000/svg"><!--!Font Awesome Free 6.5.1 by @fontawesome - https://fontawesome.com License - https://fontawesome.com/license/free Copyright 2023 Fonticons, Inc.--><path fill="#fff" d="M438.6 105.4c12.5 12.5 12.5 32.8 0 45.3l-256 256c-12.5 12.5-32.8 12.5-45.3 0l-128-128c-12.5-12.5-12.5-32.8 0-45.3s32.8-12.5 45.3 0L160 338.7l233.4-233.3c12.5-12.5 32.8-12.5 45.3 0z"/></svg><svg fill="none" viewBox="0 0 21 21" id="check2" xmlns="http://www.w3.org/2000/svg"><path d="M9.457 18.17a.394.394 0 0 1-.29-.127L1.364 9.6a.394.394 0 0 1 .289-.662h3.757a.395.395 0 0 1 .298.136l2.608 3c.282-.602.828-1.605 1.786-2.828 1.415-1.808 4.049-4.466 8.554-6.866a.394.394 0 0 1 .428.66c-.017.013-1.755 1.38-3.754 3.886-1.84 2.306-4.286 6.076-5.49 10.944a.394.394 0 0 1-.382.3Z" fill="#1B1B1B"/></svg><svg fill="none" viewBox="0 0 24 24" id="close" xmlns="http://www.w3.org/2000/svg"><path d="M17.996 6 6.003 18M6 6.004l12 11.993" stroke="#1D2B4B" stroke-linecap="round" stroke-linejoin="round"/></svg><svg viewBox="0 0 16 17" id="cursor" xmlns="http://www.w3.org/2000/svg"><path d="m.594 2.414 3.722 13.058c.297 1.041 1.713 1.214 2.253.275l2.667-4.637a.408.408 0 0 1 .218-.181l5.072-1.797c1.027-.364 1.1-1.776.117-2.246L2.311.986C1.356.529.305 1.402.594 2.414Z"/></svg><svg viewBox="0 0 32 32" id="linkedin" xmlns="http://www.w3.org/2000/svg"><path d="M5.138 25.586h4.708V10.662H5.138v14.924ZM5.99 8.132c.443.298.964.46 1.499.462a2.669 2.669 0 0 0 2.52-1.654c.136-.33.203-.684.198-1.041a2.694 2.694 0 0 0-1.664-2.492 2.708 2.708 0 0 0-2.944.576 2.696 2.696 0 0 0 .392 4.149ZM22.493 25.6h4.706l.002-9.233c0-4.557-2.838-6.113-5.465-6.113-2.429 0-4.02 1.57-4.475 2.487H17.2v-2.068h-4.527V25.6h4.708v-8.092c0-2.157 1.37-3.208 2.766-3.208 1.322 0 2.346.743 2.346 3.147V25.6Z"/></svg><svg viewBox="0 0 32 32" id="youtube" xmlns="http://www.w3.org/2000/svg"><path d="M28.544 10.877s-.25-1.765-1.02-2.54c-.975-1.02-2.065-1.025-2.565-1.085-3.58-.26-8.955-.26-8.955-.26h-.01s-5.375 0-8.955.26c-.5.06-1.59.065-2.565 1.085-.77.775-1.015 2.54-1.015 2.54s-.26 2.075-.26 4.145v1.94c0 2.07.255 4.145.255 4.145s.25 1.765 1.015 2.54c.975 1.02 2.255.985 2.825 1.095 2.05.195 8.705.255 8.705.255s5.38-.01 8.96-.265c.5-.06 1.59-.065 2.565-1.085.77-.775 1.02-2.54 1.02-2.54s.255-2.07.255-4.145v-1.94c0-2.07-.255-4.145-.255-4.145Zm-15.19 8.44v-7.195l6.915 3.61-6.915 3.585Z"/></svg></svg>