<svg width="40" height="40" viewBox="0 0 40 40" fill="none" xmlns="http://www.w3.org/2000/svg">
<rect width="40" height="40" rx="6" fill="#444444"/>
<path fill-rule="evenodd" clip-rule="evenodd" d="M20.3491 20.3334L21.905 20.0217C22.1299 19.9775 22.3369 19.8679 22.5 19.7067L27.0433 15.1667C27.6524 14.5572 27.6524 13.5695 27.0433 12.96V12.96C26.4338 12.351 25.4461 12.351 24.8366 12.96L20.2933 17.5C20.1309 17.6627 20.0202 17.8697 19.975 18.095L19.6666 19.6509C19.6303 19.8407 19.6904 20.0362 19.8271 20.1729C19.9638 20.3096 20.1593 20.3697 20.3491 20.3334Z" stroke="white" stroke-linecap="round" stroke-linejoin="round"/>
<path d="M17.8047 22.02C20.408 24.6234 23.9714 25.2834 25.7589 23.4934C27.2655 21.9867 27.0314 19.2267 25.3689 16.8384" stroke="white" stroke-linecap="round" stroke-linejoin="round"/>
<path d="M23.2001 14.5932C20.0693 12.1849 16.1543 11.8841 13.9735 14.0649C11.5326 16.5057 12.1926 21.1224 15.4468 24.3766C16.8717 25.8249 18.633 26.8979 20.5735 27.4999" stroke="white" stroke-linecap="round" stroke-linejoin="round"/>
</svg>
