<?xml version="1.0" encoding="utf-8"?><svg viewBox="0 0 126 230" xmlns="http://www.w3.org/2000/svg" xmlns:xlink="http://www.w3.org/1999/xlink"><style>:root>svg{display:none}:root>svg:target{display:block}</style><svg fill="none" viewBox="0 0 64 64" id="arrow" xmlns="http://www.w3.org/2000/svg"><circle cx="32" cy="32" r="32" fill="#fff"/><path d="m43.694 30.478.681.625.585-.638-.599-.626-.667.64Zm-7.296-8.965a.924.924 0 1 0-1.336 1.278l1.336-1.278Zm-1.35 17.028a.924.924 0 1 0 1.363 1.25l-1.363-1.25ZM20.003 41.7v-3.222h-1.85V41.7h1.85Zm7.075-10.297h16.616v-1.85H27.078v1.85Zm17.284-1.564-7.964-8.326-1.336 1.278 7.964 8.326 1.335-1.278Zm-1.35.015-7.964 8.687 1.363 1.25 7.964-8.688-1.363-1.25Zm-23.01 8.624a7.075 7.075 0 0 1 7.076-7.075v-1.85a8.924 8.924 0 0 0-8.924 8.925h1.849Z" fill="#1B1B1B"/></svg><svg fill="none" viewBox="0 0 21 20" id="arrow2" xmlns="http://www.w3.org/2000/svg"><path d="M4.233 9.984h12.492M11.736 4.99l5.03 5.01-5.03 5.01" stroke="#1B1B1B" stroke-linecap="round" stroke-linejoin="round"/></svg><svg fill="none" viewBox="0 0 16 16" id="arrow3" xmlns="http://www.w3.org/2000/svg"><path d="m5.598 12.8 4.8-4.8-4.8-4.8" stroke="#1B1B1B" stroke-width=".8" stroke-linecap="round" stroke-linejoin="round"/></svg><svg fill="none" viewBox="0 0 16 16" id="arrow3-str" xmlns="http://www.w3.org/2000/svg"><path d="m5.598 12.8 4.8-4.8-4.8-4.8"/></svg><svg fill="none" viewBox="0 0 24 24" id="burger" xmlns="http://www.w3.org/2000/svg"><path d="M3 5.994h18M17 11.994H3M3 17.994h10" stroke="#1D2B4B" stroke-linecap="round" stroke-linejoin="round"/></svg><svg viewBox="0 0 448 512" id="check" xmlns="http://www.w3.org/2000/svg"><!--!Font Awesome Free 6.5.1 by @fontawesome - https://fontawesome.com License - https://fontawesome.com/license/free Copyright 2023 Fonticons, Inc.--><path fill="#fff" d="M438.6 105.4c12.5 12.5 12.5 32.8 0 45.3l-256 256c-12.5 12.5-32.8 12.5-45.3 0l-128-128c-12.5-12.5-12.5-32.8 0-45.3s32.8-12.5 45.3 0L160 338.7l233.4-233.3c12.5-12.5 32.8-12.5 45.3 0z"/></svg><svg fill="none" viewBox="0 0 21 21" id="check2" xmlns="http://www.w3.org/2000/svg"><path d="M9.457 18.17a.394.394 0 0 1-.29-.127L1.364 9.6a.394.394 0 0 1 .289-.662h3.757a.395.395 0 0 1 .298.136l2.608 3c.282-.602.828-1.605 1.786-2.828 1.415-1.808 4.049-4.466 8.554-6.866a.394.394 0 0 1 .428.66c-.017.013-1.755 1.38-3.754 3.886-1.84 2.306-4.286 6.076-5.49 10.944a.394.394 0 0 1-.382.3Z" fill="#1B1B1B"/></svg><svg fill="none" viewBox="0 0 24 24" id="close" xmlns="http://www.w3.org/2000/svg"><path d="M17.996 6 6.003 18M6 6.004l12 11.993" stroke="#1D2B4B" stroke-linecap="round" stroke-linejoin="round"/></svg><svg fill="none" viewBox="0 0 24 24" id="close-str" xmlns="http://www.w3.org/2000/svg"><path d="M17.996 6 6.003 18M6 6.004l12 11.993"/></svg><svg viewBox="0 0 16 17" id="cursor" xmlns="http://www.w3.org/2000/svg"><path d="m.594 2.414 3.722 13.058c.297 1.041 1.713 1.214 2.253.275l2.667-4.637a.408.408 0 0 1 .218-.181l5.072-1.797c1.027-.364 1.1-1.776.117-2.246L2.311.986C1.356.529.305 1.402.594 2.414Z"/></svg><svg fill="none" viewBox="0 0 126 230" id="decor" xmlns="http://www.w3.org/2000/svg"><path d="M1.66.987c22.88-.509 77.593 34.44 70.551 74.066-1.995 11.223-19.878 26.207-33.268 16.683-17.857-12.701 7.388-30.272 21.364-29.943 36.817.867 61.652 40.45 64.552 69.618 2.435 24.495-9.073 48.247-22.935 67.919-6.503 9.227-16.595 14.29-23.427 22.833-10.57 13.216 10.925.927 20.707-.644 19.987-3.21-12.69 1.08-19.573 2.224-11.355 1.886-10.283-24.487-11.69-34.518" stroke="#1B1B1B" stroke-width="1.6" stroke-linecap="round"/></svg><svg fill="none" viewBox="0 0 19 19" id="dialog" xmlns="http://www.w3.org/2000/svg"><path d="M.6 9.5a8.9 8.9 0 0 1 17.8 0v8.9H9.5A8.9 8.9 0 0 1 .6 9.5Z" stroke="#1B1B1B" stroke-width="1.2"/><defs><clipPath id="la"><path d="M0 9.5a9.5 9.5 0 1 1 19 0V19H9.5A9.5 9.5 0 0 1 0 9.5Z" fill="#fff"/></clipPath></defs></svg><svg viewBox="0 0 32 32" id="linkedin" xmlns="http://www.w3.org/2000/svg"><path d="M5.138 25.586h4.708V10.662H5.138v14.924ZM5.99 8.132c.443.298.964.46 1.499.462a2.669 2.669 0 0 0 2.52-1.654c.136-.33.203-.684.198-1.041a2.694 2.694 0 0 0-1.664-2.492 2.708 2.708 0 0 0-2.944.576 2.696 2.696 0 0 0 .392 4.149ZM22.493 25.6h4.706l.002-9.233c0-4.557-2.838-6.113-5.465-6.113-2.429 0-4.02 1.57-4.475 2.487H17.2v-2.068h-4.527V25.6h4.708v-8.092c0-2.157 1.37-3.208 2.766-3.208 1.322 0 2.346.743 2.346 3.147V25.6Z"/></svg><svg fill="none" viewBox="0 0 44 44" id="share1" xmlns="http://www.w3.org/2000/svg"><rect width="44" height="44" rx="22" fill="#1B1B1B"/><path d="M28.996 19.002v-4h-4M22.996 21.002l6-6M29.996 23.002v2a5 5 0 0 1-5 5h-6a5 5 0 0 1-5-5v-6a5 5 0 0 1 5-5h2" stroke="#fff" stroke-width="1.2" stroke-linecap="round" stroke-linejoin="round"/></svg><svg fill="none" viewBox="0 0 44 44" id="share2" xmlns="http://www.w3.org/2000/svg"><rect width="44" height="44" rx="22" fill="#1B1B1B"/><path d="M30.82 18.083s-.175-1.24-.716-1.786c-.686-.717-1.452-.72-1.804-.763-2.517-.182-6.297-.182-6.297-.182h-.006s-3.78 0-6.297.182c-.352.043-1.118.046-1.803.763-.542.545-.714 1.786-.714 1.786S13 19.543 13 20.998v1.364c0 1.455.18 2.914.18 2.914s.175 1.241.713 1.786c.685.717 1.585.693 1.986.77 1.442.137 6.121.18 6.121.18s3.783-.008 6.3-.187c.352-.042 1.118-.046 1.803-.763.542-.545.718-1.786.718-1.786S31 23.821 31 22.362v-1.364c0-1.456-.18-2.915-.18-2.915Zm-10.68 5.935v-5.06l4.862 2.539-4.862 2.52Z" fill="#fff"/></svg><svg fill="none" viewBox="0 0 44 44" id="share3" xmlns="http://www.w3.org/2000/svg"><rect width="44" height="44" rx="22" fill="#1B1B1B"/><path d="M14.256 29.99h3.573V18.664h-3.573V29.99ZM14.903 16.744c.336.226.731.348 1.137.35a2.024 2.024 0 0 0 1.913-1.255c.103-.25.154-.52.15-.79a2.044 2.044 0 0 0-1.263-1.892 2.055 2.055 0 0 0-2.235.438 2.045 2.045 0 0 0 .298 3.149ZM27.427 30h3.571L31 22.994c0-3.459-2.154-4.64-4.147-4.64-1.844 0-3.052 1.191-3.397 1.888h-.046v-1.57h-3.436V30h3.573v-6.142c0-1.637 1.04-2.434 2.1-2.434 1.003 0 1.78.564 1.78 2.388V30Z" fill="#fff"/></svg><svg viewBox="0 0 32 32" id="youtube" xmlns="http://www.w3.org/2000/svg"><path d="M28.544 10.877s-.25-1.765-1.02-2.54c-.975-1.02-2.065-1.025-2.565-1.085-3.58-.26-8.955-.26-8.955-.26h-.01s-5.375 0-8.955.26c-.5.06-1.59.065-2.565 1.085-.77.775-1.015 2.54-1.015 2.54s-.26 2.075-.26 4.145v1.94c0 2.07.255 4.145.255 4.145s.25 1.765 1.015 2.54c.975 1.02 2.255.985 2.825 1.095 2.05.195 8.705.255 8.705.255s5.38-.01 8.96-.265c.5-.06 1.59-.065 2.565-1.085.77-.775 1.02-2.54 1.02-2.54s.255-2.07.255-4.145v-1.94c0-2.07-.255-4.145-.255-4.145Zm-15.19 8.44v-7.195l6.915 3.61-6.915 3.585Z"/></svg></svg>