<svg width="32" height="32" viewBox="0 0 32 32" fill="none" xmlns="http://www.w3.org/2000/svg">
<path d="M5.13784 25.5862H9.84573V10.6622H5.13784V25.5862Z" fill="white"/>
<path d="M5.99078 8.13199C6.43332 8.4303 6.95449 8.59111 7.48852 8.59411C7.84602 8.60143 8.20134 8.53684 8.53329 8.4042C8.86525 8.27156 9.16704 8.07358 9.4207 7.82207C9.67435 7.57055 9.87467 7.27064 10.0097 6.94022C10.1447 6.6098 10.2117 6.25563 10.2067 5.89881C10.2071 5.36586 10.0493 4.84473 9.75326 4.40118C9.45719 3.95764 9.03609 3.61156 8.54311 3.40662C8.05014 3.20169 7.50738 3.14708 6.98333 3.24969C6.45928 3.3523 5.97744 3.60753 5.59861 3.98318C5.21978 4.35882 4.96093 4.83803 4.85475 5.36035C4.74857 5.88266 4.7998 6.42465 5.00198 6.91793C5.20417 7.41121 5.54824 7.83367 5.99078 8.13199Z" fill="white"/>
<path d="M22.4929 25.5992H27.1986L27.2008 16.3675C27.2008 11.8102 24.363 10.2543 21.7362 10.2543C19.3072 10.2543 17.7154 11.8233 17.2609 12.7412H17.2V10.6731H12.6726V25.5992H17.3805V17.5068C17.3805 15.3497 18.7505 14.2994 20.1466 14.2994C21.4687 14.2994 22.4929 15.0416 22.4929 17.4461V25.5992Z" fill="white"/>
</svg>
