<svg width="32" height="32" viewBox="0 0 32 32" fill="none" xmlns="http://www.w3.org/2000/svg">
<path d="M28.5442 10.8782C28.5442 10.8782 28.2942 9.11316 27.5242 8.33816C26.5492 7.31816 25.4592 7.31316 24.9592 7.25316C21.3792 6.99316 16.0042 6.99316 16.0042 6.99316H15.9942C15.9942 6.99316 10.6192 6.99316 7.03922 7.25316C6.53922 7.31316 5.44922 7.31816 4.47422 8.33816C3.70422 9.11316 3.45922 10.8782 3.45922 10.8782C3.45922 10.8782 3.19922 12.9532 3.19922 15.0232V16.9632C3.19922 19.0332 3.45422 21.1082 3.45422 21.1082C3.45422 21.1082 3.70422 22.8732 4.46922 23.6482C5.44422 24.6682 6.72422 24.6332 7.29422 24.7432C9.34422 24.9382 15.9992 24.9982 15.9992 24.9982C15.9992 24.9982 21.3792 24.9882 24.9592 24.7332C25.4592 24.6732 26.5492 24.6682 27.5242 23.6482C28.2942 22.8732 28.5442 21.1082 28.5442 21.1082C28.5442 21.1082 28.7992 19.0382 28.7992 16.9632V15.0232C28.7992 12.9532 28.5442 10.8782 28.5442 10.8782ZM13.3542 19.3182V12.1232L20.2692 15.7332L13.3542 19.3182Z" fill="white"/>
</svg>
