<svg width="1440" height="1011" viewBox="0 0 1440 1011" fill="none" xmlns="http://www.w3.org/2000/svg">
<g clip-path="url(#clip0_2111_62502)">
<rect width="1440" height="825" fill="white"/>
<path d="M1490.5 1027.04L1263.67 782.838C1194.24 708.086 1268.18 589.558 1365.85 619.05L1678.57 713.483C1720.78 726.229 1749.67 765.119 1749.67 809.213V958.983C1749.67 1014.21 1704.89 1058.98 1649.67 1058.98H1563.77C1535.97 1058.98 1509.42 1047.41 1490.5 1027.04Z" fill="url(#paint0_linear_2111_62502)"/>
<path d="M366.389 638.95L767.665 1040.64C792.818 1065.81 826.752 1080.26 862.336 1080.95L1759.49 1098.13C1877.9 1100.4 1943.62 961.93 1867.01 871.63L1090.59 -43.4504C1039.47 -103.698 948.217 -108.591 890.95 -54.1546L368.934 442.054C312.908 495.31 311.758 584.263 366.389 638.95Z" fill="url(#paint1_linear_2111_62502)"/>
<path d="M963.143 -285.477L363.687 274.392C282.428 350.284 312.902 485.584 418.85 519.313L1497.55 862.717C1591.38 892.585 1687.15 822.568 1687.15 724.107V-179.168C1687.15 -259.506 1622.02 -324.633 1541.68 -324.633H1062.43C1025.57 -324.633 990.083 -310.638 963.143 -285.477Z" fill="url(#paint2_linear_2111_62502)"/>
<path d="M298.387 699.319L-182.278 239.991C-309.987 117.952 -187.289 -93.2736 -18.0098 -42.7959L727.696 179.568C853.78 217.166 889.823 378.448 791.739 466.143L526.699 703.106C461.265 761.609 361.845 759.96 298.387 699.319Z" fill="url(#paint3_linear_2111_62502)"/>
<path d="M551.166 700.867L-91.8457 29.8988C-186.731 -69.1122 -353.883 -1.94994 -353.883 135.187V1193.77C-353.883 1277.81 -285.754 1345.94 -201.712 1345.94H7.98062C45.4144 1345.94 81.5347 1332.15 109.435 1307.19L542.754 919.571C606.918 862.174 610.732 763.023 551.166 700.867Z" fill="url(#paint4_linear_2111_62502)"/>
<path d="M1163.43 439.883L-839.521 -143.95C-956.822 -178.141 -1024.12 -301.023 -989.77 -418.277L-943.521 -576.129C-915.93 -670.299 -829.551 -735 -731.423 -735H580.913C643.122 -735 702.451 -708.783 744.333 -662.784L1405.5 63.355C1487.23 153.109 1481.27 291.974 1392.16 374.4L1375.35 389.945C1318.38 442.646 1237.94 461.601 1163.43 439.883Z" fill="url(#paint5_linear_2111_62502)"/>
</g>
<rect width="1440" height="1011" fill="url(#paint6_linear_2111_62502)"/>
<defs>
<linearGradient id="paint0_linear_2111_62502" x1="1381.03" y1="512.32" x2="1381.03" y2="1058.98" gradientUnits="userSpaceOnUse">
<stop stop-color="#AAB9F2"/>
<stop offset="0.690543" stop-color="#DFE6FF"/>
</linearGradient>
<linearGradient id="paint1_linear_2111_62502" x1="1245.65" y1="226.306" x2="927.231" y2="1103.36" gradientUnits="userSpaceOnUse">
<stop stop-color="#AAB9F2"/>
<stop offset="1" stop-color="#DFE6FF"/>
</linearGradient>
<linearGradient id="paint2_linear_2111_62502" x1="578.605" y1="208.232" x2="934.641" y2="923.074" gradientUnits="userSpaceOnUse">
<stop stop-color="#AAB9F2"/>
<stop offset="1" stop-color="#DFE6FF"/>
</linearGradient>
<linearGradient id="paint3_linear_2111_62502" x1="164.573" y1="-242.266" x2="164.573" y2="806.734" gradientUnits="userSpaceOnUse">
<stop stop-color="#ECEFFD"/>
<stop offset="1" stop-color="#AAB9F2"/>
</linearGradient>
<linearGradient id="paint4_linear_2111_62502" x1="153.125" y1="-243.531" x2="101.932" y2="1532.07" gradientUnits="userSpaceOnUse">
<stop stop-color="#E9EDFB"/>
<stop offset="1" stop-color="#D7DDF7"/>
</linearGradient>
<linearGradient id="paint5_linear_2111_62502" x1="-647.58" y1="-488.978" x2="1364.41" y2="385.579" gradientUnits="userSpaceOnUse">
<stop stop-color="#AAB9F2"/>
<stop offset="1" stop-color="#DFE6FF"/>
</linearGradient>
<linearGradient id="paint6_linear_2111_62502" x1="720.495" y1="-116.744" x2="720.495" y2="1095.64" gradientUnits="userSpaceOnUse">
<stop offset="0.454052" stop-color="#FAFAFA" stop-opacity="0.2"/>
<stop offset="0.776536" stop-color="#FAFAFA"/>
</linearGradient>
<clipPath id="clip0_2111_62502">
<rect width="1440" height="825" fill="white"/>
</clipPath>
</defs>
</svg>
