<svg width="171" height="53" viewBox="0 0 171 53" fill="none" xmlns="http://www.w3.org/2000/svg">
<path d="M25.2071 28.2528C23.185 35.4548 21.5175 41.5045 21.3817 42.3244C21.3295 42.7413 21.126 43.1244 20.8099 43.4012C20.4939 43.6779 20.0872 43.829 19.6671 43.8258C19.6043 43.8258 19.5406 43.8258 19.476 43.8258C19.0266 43.7729 18.6162 43.5448 18.3341 43.191C18.0519 42.8373 17.9208 42.3865 17.9691 41.9366C18.0439 41.2607 19.3984 36.2803 21.0521 30.358C18.7142 31.4466 16.7919 32.1502 15.6063 32.297C15.4154 32.3237 15.2229 32.3376 15.0301 32.3386C13.8695 32.3386 13.285 31.7846 12.9942 31.2971C12.8093 30.9787 12.7319 30.6092 12.7733 30.2434C12.8147 29.8775 12.9727 29.5348 13.2241 29.2657C13.4754 28.9967 13.8067 28.8157 14.1688 28.7495C14.531 28.6833 14.9049 28.7355 15.2351 28.8983C16.2545 28.7542 18.8638 27.6822 22.2931 25.9039C24.0132 19.7905 25.7916 13.5553 26.678 10.4529C26.8115 10.0259 27.1066 9.66802 27.5004 9.45562C27.8941 9.24322 28.3553 9.19313 28.7855 9.31604C29.2156 9.43894 29.5807 9.72511 29.8028 10.1135C30.0249 10.5018 30.0864 10.9616 29.9743 11.3947C28.9217 15.0788 27.6973 19.3778 26.509 23.5826C27.9882 22.7267 29.556 21.7794 31.1293 20.7572C39.6969 15.2173 45.5333 9.92104 46.7106 6.54441C47.1538 5.28407 46.8297 4.70237 46.2036 4.21762C44.7023 3.05145 40.0875 2.90741 31.6335 5.99319C18.9635 10.6163 5.57892 19.5939 4.30195 24.2751C4.4324 24.3007 4.56514 24.3128 4.69806 24.3111C4.92746 24.2928 5.1582 24.3209 5.37653 24.3936C5.59486 24.4664 5.79631 24.5823 5.96888 24.7346C6.14145 24.8868 6.2816 25.0723 6.38099 25.2798C6.48038 25.4874 6.53697 25.7128 6.54739 25.9427C6.5578 26.1726 6.52183 26.4023 6.44162 26.618C6.36141 26.8337 6.2386 27.031 6.0805 27.1982C5.92241 27.3655 5.73227 27.4992 5.52141 27.5914C5.31056 27.6836 5.0833 27.7324 4.85318 27.7349C4.49031 27.7515 2.6178 27.7792 1.52919 26.4884C1.21721 26.1069 0.999258 25.6575 0.892922 25.1763C0.786585 24.6952 0.79484 24.1958 0.91702 23.7184C1.77018 19.7213 7.22429 15.3447 11.648 12.3559C17.5289 8.4417 23.8454 5.22533 30.4701 2.77168C36.5142 0.55569 44.5167 -1.44424 48.3199 1.5058C50.0927 2.89079 50.7353 4.87411 50.1315 7.1178C49.3531 10.018 45.9211 15.1259 33.9963 22.9843C31.0241 24.9427 27.9771 26.7543 25.2071 28.2528ZM140.256 25.9565C138.937 29.6046 135.849 38.1445 139.68 39.9007C140.078 40.0994 140.382 40.4449 140.53 40.8642C140.678 41.2835 140.657 41.7438 140.472 42.1481C140.287 42.5523 139.952 42.8689 139.538 43.031C139.124 43.1931 138.664 43.188 138.253 43.0169C133.392 40.8009 134.007 34.79 135.389 29.7847C129.935 36.2526 126.525 39.535 123.822 39.535C123.41 39.5399 123.003 39.4455 122.636 39.2599C122.268 39.0742 121.951 38.8028 121.711 38.4686C120.257 36.4714 121.207 32.4328 124.04 23.5494C124.137 23.2447 124.237 22.9289 124.34 22.6104C124.09 22.9372 123.823 23.3066 123.536 23.7184C121.794 26.2114 119.977 29.3747 118.373 32.1669C117.265 34.1058 116.29 35.8011 115.473 37.0476C114.656 38.2941 113.451 40.1417 111.736 39.5018C111.477 39.4015 111.241 39.2506 111.042 39.058C110.842 38.8653 110.682 38.6348 110.573 38.3799C110.296 37.7345 109.742 36.5324 111.886 27.9094C112.251 26.4357 112.647 24.9399 113.019 23.5993C110.121 26.1587 107.576 27.6407 105.451 28.4772C105.202 29.9088 104.741 31.2952 104.083 32.5907C100.939 38.8093 97.1355 41.7566 93.3766 40.9006C91.9335 40.5682 90.8532 39.5406 90.3296 38.0115C89.0305 34.2194 91.2964 28.2141 96.3931 21.9456C96.6203 21.6657 96.9301 21.4646 97.2783 21.3711C97.6265 21.2776 97.9953 21.2964 98.3321 21.4248C98.6833 21.1429 99.0535 20.8856 99.4401 20.6548C100.792 19.8653 101.958 19.6825 102.908 20.1008C104.091 20.6548 104.75 21.9179 105.094 22.8957C105.293 23.4727 105.438 24.0671 105.526 24.6712C107.72 23.5633 110.498 21.5855 113.753 18.0759C114.445 17.328 115.736 15.9402 117.163 16.8349C118.589 17.7296 117.908 19.4055 117.592 20.2171C117.146 21.3583 115.401 27.5604 114.409 32.1779C114.747 31.5962 115.082 31.0118 115.401 30.455C120.165 22.145 123.545 16.6909 126.941 16.4222C127.239 16.3983 127.538 16.4483 127.813 16.5676C128.087 16.6869 128.328 16.872 128.514 17.1064C129.328 18.1341 129.029 19.1839 127.306 24.5854C126.412 27.3858 124.448 33.5463 124.445 35.8731C125.079 35.5379 126.254 34.7125 128.229 32.6931C130.348 30.527 132.611 27.7903 134.428 25.5937C137.292 22.1312 137.924 21.4387 138.721 21.1617C139.043 21.0435 139.392 21.0202 139.726 21.0943C140.06 21.1685 140.366 21.337 140.608 21.5799C141.502 22.4885 141.162 23.4331 140.248 25.9565H140.256ZM101.684 29.4079C101.166 29.4583 100.644 29.4685 100.124 29.4384C98.4623 29.3331 97.1023 28.7681 96.2962 27.8706C93.3766 32.5076 93.1162 35.6266 93.5511 36.8786C93.7478 37.452 94.0248 37.5185 94.1301 37.5406C96.1383 38.006 98.7089 35.5739 101.002 31.0367C101.269 30.5112 101.497 29.9668 101.684 29.4079ZM102.177 25.8707C102.157 25.0023 101.94 24.1499 101.543 23.3777C100.712 23.7156 99.3266 24.9759 99.0219 25.6989C99.5363 25.9345 100.099 26.0455 100.664 26.023C101.173 26.0273 101.68 25.9762 102.177 25.8707ZM170.233 20.4636C165.629 25.5521 161.646 27.6241 158.557 28.3083C158.273 29.2004 157.915 30.0675 157.488 30.901C153.793 38.139 150.242 39.9505 147.616 39.9505C147.216 39.9501 146.816 39.9083 146.425 39.8259C145.012 39.524 143.932 38.5434 143.414 37.0559C142.029 33.1779 144.458 26.7626 149.929 19.9179C150.152 19.6322 150.46 19.4247 150.808 19.3251C151.157 19.2256 151.528 19.2392 151.868 19.3639C153.233 18.2089 155.081 17.1867 156.593 17.8654C157.502 18.2726 158.23 19.195 158.701 20.5329C159.124 21.8221 159.305 23.1779 159.236 24.5327C161.51 23.7017 164.352 21.8459 167.704 18.1424C168.012 17.8186 168.435 17.628 168.882 17.6113C169.328 17.5946 169.764 17.753 170.096 18.0529C170.427 18.3527 170.629 18.7702 170.657 19.2164C170.685 19.6626 170.538 20.1022 170.247 20.4415L170.233 20.4636ZM154.818 28.5243C152.353 28.2307 150.621 27.0922 149.752 26.0562C148.749 27.619 147.913 29.2828 147.259 31.0201C146.516 33.0588 146.289 34.8981 146.655 35.9091C146.832 36.4049 147.054 36.4631 147.15 36.4631C149.211 36.9008 151.945 34.2471 154.449 29.3331C154.566 29.0645 154.704 28.793 154.818 28.5243ZM155.25 21.1977C154.3 21.6187 152.707 23.1727 152.466 23.9483C152.829 24.3111 153.851 25.0341 155.566 25.1505H155.732C155.951 23.2558 155.599 21.8098 155.25 21.1977ZM146.488 11.9376C146.89 10.3892 146.101 8.84074 144.718 8.48064C143.336 8.12054 141.893 9.0845 141.486 10.6357C141.079 12.1869 141.876 13.7298 143.256 14.0899C144.635 14.45 146.081 13.486 146.488 11.9376ZM90.1219 18.6687C89.4044 18.2975 88.3048 18.3723 87.6289 18.4665C84.2079 18.9457 80.4103 21.3168 79.1167 22.7793C79.5765 22.9816 80.2247 23.2087 80.7344 23.3943C83.2107 24.2751 86.604 25.4856 87.9751 28.5132C88.8061 30.3691 88.7369 32.5934 87.7341 35.1224C84.7121 42.7454 78.7621 44.6235 75.416 44.6235C74.8478 44.6338 74.281 44.5648 73.7318 44.4185C71.7097 43.8202 70.2444 42.5626 69.4937 40.7843C67.6129 36.3357 70.7679 30.0783 71.1336 29.3802C71.238 29.1802 71.3808 29.0026 71.5538 28.8577C71.7268 28.7128 71.9267 28.6035 72.1419 28.5358C72.3572 28.4682 72.5837 28.4436 72.8085 28.4635C73.0333 28.4834 73.252 28.5473 73.4521 28.6517C73.6521 28.7561 73.8297 28.8989 73.9746 29.0719C74.1195 29.2449 74.2288 29.4448 74.2965 29.6601C74.3641 29.8754 74.3887 30.1019 74.3688 30.3267C74.3489 30.5515 74.285 30.7701 74.1806 30.9702C73.3967 32.4743 71.5962 36.9368 72.6626 39.4519C73.0172 40.2829 73.6709 40.8231 74.7207 41.1333C75.031 41.2247 76.7456 41.3826 78.8757 40.3826C80.607 39.5738 82.9947 37.7844 84.5487 33.8593C85.1968 32.2278 85.2993 30.9065 84.8561 29.9287C84.0833 28.2251 81.5903 27.336 79.5931 26.6213C77.6541 25.9344 76.1362 25.3914 75.5545 24.0342C75.4201 23.7145 75.3522 23.3709 75.3551 23.0242C75.3579 22.6774 75.4314 22.3349 75.5711 22.0176C70.6655 22.8486 66.7237 25.9731 63.8346 31.3137C62.7417 33.3663 61.8715 35.53 61.2392 37.7678C60.7627 39.8896 60.4082 41.3688 60.4082 41.3826C60.3209 41.7585 60.1093 42.094 59.8077 42.3348C59.5061 42.5756 59.1321 42.7076 58.7462 42.7094C58.6403 42.7099 58.5346 42.7006 58.4304 42.6817C57.996 42.6011 57.6094 42.3559 57.3514 41.9972C57.0933 41.6386 56.9837 41.1941 57.0454 40.7566C57.2579 39.4181 57.5577 38.0949 57.9429 36.7955C58.7739 33.0477 59.5827 29.3608 60.1589 26.4911C56.5911 31.2971 47.8324 42.1915 41.7412 42.233C39.9989 42.2552 38.5557 41.4463 37.5613 39.9201C37.4449 39.7419 37.3395 39.5569 37.2455 39.3661C36.2928 39.7302 35.3038 39.9911 34.2954 40.1444C31.567 40.5461 29.1599 39.9755 27.34 38.5018C26.9945 38.2132 26.7764 37.8002 26.7327 37.3522C26.6891 36.9041 26.8235 36.4568 27.1068 36.1069C27.3901 35.7571 27.7996 35.5326 28.247 35.4822C28.6944 35.4317 29.1436 35.5592 29.4978 35.8371C30.8329 36.9202 32.5725 36.9312 33.7968 36.754C34.7411 36.6071 35.6632 36.3428 36.5419 35.9673C36.5004 32.1225 38.3008 27.6739 39.0349 26.0479C41.1761 21.206 44.874 15.8156 48.7991 15.1979C50.6633 14.9043 52.2201 15.5137 53.076 16.8599C54.9568 19.8432 52.4278 24.7627 49.9764 28.3636C47.1399 32.5186 43.7633 35.8094 40.3257 37.8675C40.3573 37.9354 40.3933 38.0011 40.4337 38.0642C40.8714 38.7345 41.3229 38.8287 41.7163 38.8204C42.6913 38.8204 45.6219 38.0669 51.7796 31.3054C54.3244 28.5031 56.6892 25.5426 58.8597 22.4414L59.17 21.9456C60.3306 20.0869 61.1755 18.7435 62.6685 18.8986C63.0638 18.951 63.4355 19.1163 63.7392 19.3748C64.0428 19.6332 64.2654 19.9738 64.3803 20.3556C64.5299 20.7877 64.6573 21.1866 63.9261 25.0951C67.6794 20.7074 72.538 18.3917 78.2109 18.3557C78.4411 18.3563 78.6689 18.4024 78.8812 18.4914C81.2413 16.8294 84.3935 15.461 87.1414 15.0677C90.5097 14.5885 92.2659 15.7353 93.1495 16.7851C94.0331 17.8349 94.3101 19.8321 90.5928 23.4026C90.4326 23.569 90.2404 23.7012 90.0279 23.7915C89.8153 23.8818 89.5867 23.9282 89.3557 23.9279C89.1248 23.9277 88.8963 23.8808 88.6839 23.79C88.4715 23.6993 88.2797 23.5665 88.1199 23.3998C87.96 23.2331 87.8355 23.0358 87.7539 22.8198C87.6722 22.6038 87.635 22.3735 87.6445 22.1427C87.654 21.912 87.71 21.6855 87.8092 21.4769C87.9084 21.2684 88.0487 21.082 88.2217 20.929C88.9414 20.2525 89.5791 19.4939 90.1219 18.6687ZM40.1401 33.9036C42.5999 32.1031 45.0181 29.5492 47.1454 26.4247C50.5137 21.4858 50.4694 19.1811 50.1924 18.7102C50.1232 18.6022 49.9154 18.5634 49.7049 18.5634C49.5844 18.5642 49.464 18.5734 49.3448 18.5911C47.0596 18.9512 44.0043 23.3167 42.1678 27.4551C41.2161 29.508 40.5345 31.6755 40.1401 33.9036ZM166.175 49.2106H4.62881V52.6399H166.172L166.175 49.2106Z" fill="white"/>
</svg>
