<svg width="24" height="24" viewBox="0 0 24 24" fill="none" xmlns="http://www.w3.org/2000/svg">
<g clip-path="url(#clip0_141_3568)">
<path d="M12.1949 22.9242C12.0172 22.9242 11.8413 22.8626 11.6999 22.7375C11.2774 22.3748 1.33197 13.7548 0.459815 8.44032C0.0681612 6.03419 0.438056 4.14482 1.56043 2.82662C2.52143 1.69517 3.99739 1.07324 5.71631 1.07324C5.86499 1.07324 6.01549 1.07687 6.16417 1.08775C6.26934 1.08231 6.37269 1.08049 6.47605 1.08049C8.37629 1.08049 10.7244 1.91638 12.1133 5.47028C12.893 3.30168 14.4904 1.08775 18.1477 1.08775C20.2057 1.08775 21.8158 1.70787 22.8094 2.87739C23.8919 4.14845 24.2364 6.01968 23.8412 8.44032C22.9726 13.7512 13.1106 22.373 12.6917 22.7357C12.5503 22.8626 12.3726 22.9242 12.1949 22.9242Z" fill="#9747FF"/>
</g>
<defs>
<clipPath id="clip0_141_3568">
<rect width="23.6914" height="23.6914" fill="white" transform="translate(0.308594 0.154297)"/>
</clipPath>
</defs>
</svg>
