<svg width="72" height="72" viewBox="0 0 72 72" fill="none" xmlns="http://www.w3.org/2000/svg">
<path d="M48.082 54.3776V45.1872C48.082 37.0592 38.8916 38.3776 38.8916 33.04C38.9173 31.9601 39.2454 30.9091 39.8388 30.0064C40.8939 28.1845 41.4296 26.1082 41.3876 24.0032C41.3236 19.28 38.9172 18 35.9988 18C33.0804 18 30.61 19.28 30.61 24.0032C30.568 26.1082 31.1036 28.1845 32.1588 30.0064C32.7391 30.9121 33.0499 31.9643 33.0548 33.04C33.0548 39.44 23.8516 36.2016 23.8516 45.1872V54.3776" stroke="#1B1B1B" stroke-width="3" stroke-miterlimit="10"/>
<path d="M19.0912 38.8762V37.417C19.0915 36.3424 19.3979 35.2902 19.9744 34.3834C21.0295 32.5614 21.5652 30.4852 21.5232 28.3802C21.5232 23.6698 19.1168 22.377 16.1344 22.377C13.152 22.377 10.7584 23.657 10.7584 28.3802C10.7164 30.4852 11.2521 32.5614 12.3072 34.3834C12.878 35.2927 13.1838 36.3433 13.1904 37.417V38.8762C13.1921 39.2425 13.121 39.6055 12.9812 39.9441C12.8414 40.2827 12.6358 40.5901 12.3761 40.8486C12.1165 41.107 11.8081 41.3113 11.4689 41.4495C11.1296 41.5877 10.7663 41.6571 10.4 41.6538C6.56 41.5258 4 42.2426 4 48.0538V49.9994C4 54.6202 7.7376 54.4154 10.4 54.4154H61.6C64.224 54.4154 68 54.6202 68 49.9994V48.105C68 42.2426 65.44 41.5258 61.6 41.705C61.2305 41.7135 60.863 41.6479 60.5193 41.512C60.1756 41.3761 59.8626 41.1726 59.5989 40.9137C59.3352 40.6547 59.126 40.3455 58.9839 40.0043C58.8417 39.6632 58.7694 39.297 58.7712 38.9274V37.417C58.7778 36.3433 59.0836 35.2927 59.6544 34.3834C60.714 32.5627 61.2541 30.4864 61.216 28.3802C61.216 23.6698 58.7968 22.377 55.8272 22.377C52.8576 22.377 50.4384 23.657 50.4384 28.3802C50.4003 30.4864 50.9404 32.5627 52 34.3834C52.5708 35.2927 52.8766 36.3433 52.8832 37.417V38.8762" stroke="#1B1B1B" stroke-width="3" stroke-miterlimit="10"/>
</svg>
