<svg width="72" height="72" viewBox="0 0 72 72" fill="none" xmlns="http://www.w3.org/2000/svg">
<path d="M33.1236 46.7065C31.6042 50.4026 29.4125 53.7848 26.6597 56.6817C20.8042 62.5371 11.1482 60.582 11.1482 60.582C11.1482 60.582 9.83144 50.3474 15.0485 45.1104C17.9599 42.3521 21.3595 40.16 25.0736 38.6465" stroke="#1B1B1B" stroke-width="3" stroke-miterlimit="10"/>
<path d="M34.4894 56.1837L40.704 49.9592L40.1653 43.4254C40.1316 43.0268 40.1907 42.6257 40.3378 42.2537C40.4848 41.8816 40.716 41.5486 41.0132 41.2807C43.5868 38.9565 49.3625 33.8093 53.981 29.1708C62.849 20.3128 60.794 10.9561 60.794 10.9561C60.794 10.9561 51.4473 8.90118 42.5793 17.7692C37.8411 22.4974 32.5243 28.4825 30.3298 30.9165C30.1018 31.1632 29.8209 31.3551 29.5082 31.4777C29.1955 31.6004 28.8591 31.6507 28.5242 31.6247L21.791 31.0661L15.5664 37.2807" stroke="#1B1B1B" stroke-width="3" stroke-miterlimit="10"/>
<path d="M33.1622 38.6074L21.3516 50.4181" stroke="#1B1B1B" stroke-width="3" stroke-miterlimit="10"/>
<path d="M39.0586 28.9023L42.8791 32.7129" stroke="#1B1B1B" stroke-width="3" stroke-miterlimit="10"/>
<path d="M48.457 19.4941L52.2776 23.3146" stroke="#1B1B1B" stroke-width="3" stroke-miterlimit="10"/>
</svg>
