<svg width="57" height="57" viewBox="0 0 57 57" fill="none" xmlns="http://www.w3.org/2000/svg">
<g clip-path="url(#clip0_847_52430)">
<path d="M11.2117 20.1071C12.0082 17.8975 13.4373 15.9711 15.3209 14.5678C17.2045 13.1646 19.4594 12.3467 21.8046 12.2158C24.1498 12.085 26.4816 12.6472 28.5096 13.8322C30.5375 15.0172 32.172 16.7728 33.2093 18.8801C33.3473 19.1755 33.594 19.4061 33.8979 19.5239C34.2019 19.6416 34.5395 19.6374 34.8404 19.512C35.9748 19.0279 37.2138 18.8408 38.4406 18.9683C40.2532 19.1956 41.9186 20.0823 43.1193 21.4591C44.3199 22.8359 44.9717 24.6065 44.9503 26.4331V27.447" stroke="#1D1B1B" stroke-width="2.5" stroke-miterlimit="10"/>
<path d="M13.9599 38.6926H8.73599C6.84785 38.6325 5.05712 37.8403 3.74272 36.4834C2.42832 35.1266 1.69336 33.3116 1.69336 31.4225C1.69336 29.5333 2.42832 27.7183 3.74272 26.3615C5.05712 25.0046 6.84785 24.2124 8.73599 24.1523C9.33833 24.1529 9.93819 24.2294 10.5214 24.3801L11.2561 24.6079" stroke="#1D1B1B" stroke-width="2.5" stroke-miterlimit="10"/>
<path d="M49.2856 26.2051C50.9419 26.2051 52.5304 26.863 53.7016 28.0342C54.8727 29.2054 55.5307 30.7939 55.5307 32.4502C55.5307 34.1066 54.8727 35.695 53.7016 36.8662C52.5304 38.0374 50.9419 38.6954 49.2856 38.6954H41.762" stroke="#1D1B1B" stroke-width="2.5" stroke-miterlimit="10"/>
<path d="M35.0461 46.5801V41.3121C35.0461 36.6393 29.7708 37.396 29.7708 34.3322C29.7746 33.716 29.9501 33.1129 30.2778 32.5909C30.886 31.5459 31.196 30.3541 31.1741 29.1451C31.1741 26.4413 29.7855 25.6992 28.0809 25.6992C26.3764 25.6992 24.9804 26.4413 24.9804 29.1451C24.9585 30.3541 25.2685 31.5459 25.8768 32.5909C26.2044 33.1129 26.38 33.716 26.3837 34.3322C26.3837 38.0059 21.1084 36.147 21.1084 41.3121V46.5801" stroke="#1D1B1B" stroke-width="2.5" stroke-miterlimit="10"/>
<path d="M18.405 37.6835V36.8459C18.4088 36.2296 18.5844 35.6266 18.912 35.1046C19.5305 34.0625 19.8507 32.8705 19.8377 31.6588C19.8377 28.955 18.4565 28.2129 16.7519 28.2129C15.0473 28.2129 13.6587 28.9476 13.6587 31.6588C13.6346 32.867 13.9421 34.0588 14.5477 35.1046C14.8808 35.6245 15.0592 36.2284 15.062 36.8459V37.6835C15.0631 37.8957 15.0215 38.1059 14.9399 38.3017C14.8583 38.4975 14.7383 38.675 14.5869 38.8237C14.4355 38.9723 14.2559 39.0891 14.0586 39.1671C13.8613 39.2451 13.6504 39.2828 13.4383 39.2779C11.2341 39.2044 9.76465 39.6158 9.76465 42.9515V44.0168C9.76465 46.6692 11.9174 46.5516 13.4383 46.5516H42.8273C44.2967 46.5516 46.5009 46.6692 46.5009 44.0168V42.9809C46.5009 39.6158 45.0315 39.2044 42.8273 39.3072C42.6079 39.3205 42.3881 39.2881 42.1818 39.212C41.9756 39.1359 41.7874 39.0178 41.6292 38.8651C41.471 38.7124 41.3463 38.5286 41.2629 38.3252C41.1795 38.1218 41.1393 37.9033 41.1448 37.6835V36.8459C41.1476 36.2284 41.3259 35.6245 41.6591 35.1046C42.2647 34.0588 42.5722 32.867 42.5481 31.6588C42.5481 28.955 41.1668 28.2129 39.4549 28.2129C37.743 28.2129 36.3691 28.9476 36.3691 31.6588C36.3449 32.867 36.6524 34.0588 37.2581 35.1046C37.5857 35.6266 37.7613 36.2296 37.765 36.8459V37.6835" stroke="#1D1B1B" stroke-width="2.5" stroke-miterlimit="10"/>
</g>
<defs>
<clipPath id="clip0_847_52430">
<rect width="57" height="37.3241" fill="white" transform="translate(0 10.7266)"/>
</clipPath>
</defs>
</svg>
