<svg width="56" height="56" viewBox="0 0 56 56" fill="none" xmlns="http://www.w3.org/2000/svg">
<path d="M34.2016 26.9846C34.2016 26.9846 36.0501 20.4835 33.8109 15.4504C31.7242 10.7546 26.7217 6.99805 26.7217 6.99805L25.7689 7.90984C26.7217 10.1711 27.2411 14.4893 21.7383 20.52C17.7059 24.9392 13.0007 27.6776 13.0007 36.1573C12.9719 38.9772 13.8259 41.7408 15.4528 44.0922C17.0796 46.4436 19.4048 48.2752 22.129 49.351L22.4911 48.4392C22.4911 48.4392 20.5854 47.0259 20.5854 43.0322V39.0112M26.998 44.172C26.998 44.172 20.8903 39.303 23.8441 32.4372C24.6469 30.3106 25.8338 28.3354 27.3506 26.6017L28.9704 27.1396C28.3701 29.5924 27.9437 34.4174 31.4478 38.993C35.3529 44.0922 32.3245 48.5851 32.3245 48.5851L32.515 49.351C35.6302 48.3225 38.3237 46.3741 40.2073 43.7867C42.091 41.1993 43.0676 38.1064 42.9964 34.9537C42.8496 30.9148 41.4535 27.0085 38.9849 23.7295" stroke="black" stroke-width="2.14286" stroke-miterlimit="10"/>
</svg>
