<svg width="56" height="56" viewBox="0 0 56 56" fill="none" xmlns="http://www.w3.org/2000/svg">
<path d="M4.99239 19.4022V42.002C4.99239 42.2397 5.08668 42.4677 5.25452 42.6358C5.42236 42.8039 5.65 42.8983 5.88737 42.8983H44.8615V21.7924C44.8629 21.5617 44.8187 21.333 44.7316 21.1194C44.6444 20.9059 44.5159 20.7117 44.3535 20.5481C44.1911 20.3844 43.998 20.2546 43.7853 20.166C43.5726 20.0774 43.3445 20.0318 43.1142 20.0318H27.1324C26.6887 20.0229 26.2558 19.8931 25.8804 19.6562C25.5049 19.4193 25.201 19.0843 25.0015 18.6873L22.7534 14.2484C22.5625 13.8724 22.2713 13.5567 21.912 13.3363C21.5528 13.1159 21.1397 12.9995 20.7184 13H3M28.4323 13H52V41.0843C51.9944 41.5636 51.7996 42.0211 51.4582 42.357C51.1169 42.6929 50.6566 42.8798 50.1781 42.877H44.8508" stroke="black" stroke-width="2.5" stroke-miterlimit="10"/>
</svg>
