<svg width="48" height="48" viewBox="0 0 48 48" fill="none" xmlns="http://www.w3.org/2000/svg">
<path d="M46.7937 22.5794C47.3083 23.7274 47.6349 24.9546 47.7685 26.2065C47.8972 27.4584 47.8329 28.7252 47.5657 29.9573C47.3034 31.1894 46.8482 32.3721 46.2148 33.4607C45.7991 34.1881 45.3092 34.871 44.7451 35.4994C44.186 36.1229 43.5625 36.687 42.8846 37.1819C42.2017 37.6767 41.4743 38.0923 40.7024 38.4338C39.9354 38.7703 39.1337 39.0276 38.3123 39.1958C37.9263 40.3933 37.3523 41.5265 36.6101 42.5458C35.8728 43.5652 34.9771 44.4608 33.9578 45.1981C32.9384 45.9404 31.8102 46.5144 30.6127 46.9003C29.4152 47.2913 28.1633 47.4842 26.9015 47.4842C26.0652 47.4892 25.224 47.4001 24.4026 47.2319C23.5861 47.0587 22.7845 46.7964 22.0175 46.455C21.2505 46.1136 20.5231 45.688 19.8452 45.1932C19.1722 44.6983 18.5487 44.1293 17.9945 43.5008C16.7575 43.7681 15.4907 43.8324 14.2388 43.7037C12.9868 43.5701 11.7597 43.2435 10.6067 42.7289C9.45869 42.2192 8.3948 41.5265 7.45957 40.6803C6.52434 39.8341 5.72766 38.8445 5.09922 37.7559C4.67862 37.0285 4.33223 36.2615 4.06997 35.4648C3.80771 34.6681 3.63452 33.8467 3.54545 33.0104C3.45638 32.1791 3.46133 31.3379 3.5504 30.5016C3.63947 29.6703 3.82256 28.8489 4.08482 28.0522C3.2436 27.117 2.55084 26.0531 2.03622 24.9051C1.52654 23.7521 1.195 22.5299 1.06635 21.278C0.932741 20.026 1.00202 18.7593 1.26428 17.5271C1.52654 16.295 1.98178 15.1124 2.61517 14.0237C3.03083 13.2963 3.52071 12.6085 4.07987 11.985C4.63903 11.3615 5.26747 10.7974 5.94538 10.3026C6.6233 9.80777 7.35565 9.38716 8.12264 9.05068C8.89458 8.70924 9.69621 8.45688 10.5176 8.28864C10.9036 7.08619 11.4776 5.95798 12.2149 4.93863C12.9571 3.91927 13.8528 3.02363 14.8721 2.28138C15.8915 1.54408 17.0197 0.970076 18.2172 0.579159C19.4147 0.19319 20.6666 -0.00474214 21.9284 0.00020618C22.7647 -0.00474214 23.6059 0.0793792 24.4273 0.25257C25.2488 0.425761 26.0504 0.683074 26.8174 1.02451C27.5844 1.37089 28.3118 1.7915 28.9897 2.28633C29.6676 2.78611 30.2911 3.35022 30.8453 3.97865C32.0774 3.71639 33.3442 3.65206 34.5961 3.78072C35.8481 3.90938 37.0703 4.24091 38.2232 4.75059C39.3713 5.26521 40.4351 5.95303 41.3704 6.79919C42.3056 7.64041 43.1023 8.62512 43.7307 9.7187C44.1513 10.4412 44.4977 11.2081 44.76 12.0098C45.0222 12.8064 45.2004 13.6279 45.2845 14.4641C45.3736 15.3004 45.3736 16.1416 45.2795 16.9779C45.1905 17.8141 45.0074 18.6356 44.7451 19.4322C45.5913 20.3675 46.2791 21.4264 46.7937 22.5794ZM30.3059 43.7037C31.3847 43.2584 32.3644 42.6003 33.1908 41.7739C34.0172 40.9475 34.6753 39.9678 35.1207 38.8841C35.566 37.8053 35.7986 36.6474 35.7986 35.4796V24.4449C35.7953 24.435 35.792 24.4234 35.7887 24.4102C35.7854 24.4004 35.7804 24.3905 35.7738 24.3806C35.7672 24.3707 35.759 24.3624 35.7491 24.3558C35.7392 24.3459 35.7293 24.3393 35.7194 24.336L31.7261 22.0301V35.3609C31.7261 35.4945 31.7063 35.633 31.6717 35.7617C31.637 35.8953 31.5876 36.019 31.5183 36.1378C31.449 36.2565 31.3698 36.3654 31.2709 36.4594C31.1747 36.5553 31.0666 36.6384 30.9492 36.7068L21.493 42.1648C21.4138 42.2143 21.2802 42.2836 21.2109 42.3232C21.6019 42.6547 22.0274 42.9466 22.4728 43.2039C22.9231 43.4613 23.3882 43.679 23.8731 43.8571C24.3581 44.0303 24.8578 44.1639 25.3626 44.253C25.8723 44.3421 26.3869 44.3866 26.9015 44.3866C28.0693 44.3866 29.2272 44.154 30.3059 43.7037ZM7.78616 36.212C8.37501 37.2264 9.15189 38.1072 10.0772 38.8197C11.0075 39.5323 12.0615 40.0519 13.1897 40.3537C14.3179 40.6556 15.4956 40.7347 16.6535 40.5813C17.8114 40.4279 18.9248 40.0519 19.9392 39.468L29.4994 33.9506L29.5241 33.9259C29.5307 33.9193 29.5357 33.9094 29.5389 33.8962C29.5455 33.8863 29.5505 33.8764 29.5538 33.8665V29.2151L18.0143 35.8903C17.8956 35.9596 17.7719 36.0091 17.6432 36.0487C17.5096 36.0833 17.376 36.0982 17.2374 36.0982C17.1038 36.0982 16.9702 36.0833 16.8366 36.0487C16.708 36.0091 16.5793 35.9596 16.4606 35.8903L7.00432 30.4274C6.9202 30.3779 6.79649 30.3037 6.72722 30.2592C6.63815 30.7688 6.59361 31.2835 6.59361 31.7981C6.59361 32.3127 6.6431 32.8273 6.73217 33.337C6.82124 33.8417 6.95979 34.3415 7.13298 34.8265C7.31112 35.3114 7.52884 35.7765 7.78616 36.2219V36.212ZM5.3021 15.5775C4.7182 16.5919 4.34213 17.7102 4.18873 18.8681C4.03533 20.026 4.11451 21.1988 4.41635 22.332C4.7182 23.4602 5.23778 24.5142 5.95033 25.4444C6.66289 26.3698 7.54864 27.1467 8.55809 27.7306L18.1133 33.2529C18.1232 33.2562 18.1347 33.2595 18.1479 33.2628H18.1826C18.1958 33.2628 18.2073 33.2595 18.2172 33.2529C18.2271 33.2496 18.237 33.2446 18.2469 33.238L22.255 30.9222L10.7156 24.2618C10.6017 24.1925 10.4929 24.1084 10.3939 24.0144C10.298 23.9182 10.2149 23.8101 10.1465 23.6927C10.0822 23.574 10.0277 23.4503 9.99311 23.3167C9.95847 23.188 9.93867 23.0544 9.94362 22.9159V11.6782C9.45869 11.8564 8.9886 12.0741 8.54325 12.3314C8.0979 12.5937 7.67729 12.8906 7.28143 13.2221C6.89051 13.5536 6.52434 13.9198 6.1928 14.3157C5.86126 14.7066 5.56931 15.1322 5.312 15.5775H5.3021ZM38.1243 23.2177C38.243 23.287 38.3519 23.3662 38.4509 23.4651C38.5449 23.5591 38.629 23.668 38.6983 23.7868C38.7626 23.9055 38.817 24.0342 38.8517 24.1628C38.8814 24.2964 38.9012 24.43 38.8962 24.5686V35.8062C40.4846 35.2223 41.8702 34.198 42.8945 32.8521C43.9237 31.5061 44.5422 29.8979 44.6857 28.2155C44.8292 26.5331 44.4928 24.8408 43.7109 23.3414C42.9291 21.8421 41.7365 20.5951 40.2718 19.7539L30.7167 14.2316C30.7068 14.2283 30.6952 14.225 30.682 14.2217H30.6474C30.6375 14.225 30.6259 14.2283 30.6127 14.2316C30.6028 14.2349 30.5929 14.2398 30.583 14.2464L26.5947 16.5523L38.1342 23.2177H38.1243ZM42.1077 17.2302H42.1027V17.2352L42.1077 17.2302ZM42.1027 17.2253C42.3897 15.5627 42.1967 13.8505 41.5436 12.2918C40.8953 10.7331 39.8117 9.39211 38.4261 8.42224C37.0406 7.45732 35.4077 6.90311 33.7203 6.82888C32.028 6.75961 30.3554 7.17032 28.8907 8.01153L19.3355 13.5289C19.3256 13.5355 19.3174 13.5437 19.3108 13.5536L19.291 13.5833C19.2877 13.5932 19.2844 13.6048 19.2811 13.618C19.2778 13.6279 19.2761 13.6394 19.2761 13.6526V18.2644L30.8156 11.5991C30.9344 11.5298 31.063 11.4803 31.1917 11.4407C31.3253 11.4061 31.4589 11.3912 31.5925 11.3912C31.7311 11.3912 31.8647 11.4061 31.9983 11.4407C32.1269 11.4803 32.2506 11.5298 32.3694 11.5991L41.8256 17.062C41.9097 17.1115 42.0334 17.1808 42.1027 17.2253ZM17.0989 12.1186C17.0989 11.985 17.1187 11.8514 17.1533 11.7178C17.188 11.5892 17.2374 11.4605 17.3067 11.3417C17.376 11.2279 17.4552 11.1191 17.5541 11.0201C17.6482 10.9261 17.757 10.842 17.8758 10.7776L27.332 5.31965C27.4211 5.26521 27.5448 5.19594 27.6141 5.1613C26.3176 4.07762 24.7341 3.38485 23.0567 3.17208C21.3792 2.95435 19.677 3.22156 18.1479 3.93907C16.614 4.65657 15.3175 5.79963 14.412 7.22475C13.5064 8.65481 13.0264 10.3075 13.0264 11.9999V23.0346C13.0297 23.0478 13.033 23.0594 13.0363 23.0693C13.0396 23.0792 13.0446 23.089 13.0512 23.0989C13.0578 23.1088 13.066 23.1187 13.0759 23.1286C13.0825 23.1352 13.0924 23.1418 13.1056 23.1484L17.0989 25.4543V12.1186ZM19.2663 26.7013L24.4075 29.6703L29.5488 26.7013V20.7683L24.4125 17.7993L19.2712 20.7683L19.2663 26.7013Z" fill="black"/>
</svg>
