<svg width="985" height="548" viewBox="0 0 985 548" fill="none" xmlns="http://www.w3.org/2000/svg">
<g clip-path="url(#clip0_97_5774)">
<rect width="984" height="547" transform="translate(0.525391 0.778076)" fill="#1B1B1B"/>
<g filter="url(#filter0_f_97_5774)">
<circle cx="189.403" cy="398.207" r="225.281" transform="rotate(-43.5364 189.403 398.207)" fill="#FF7734"/>
<circle cx="160.675" cy="352.647" r="225.281" transform="rotate(-43.5364 160.675 352.647)" fill="#FF7734"/>
<circle cx="359.407" cy="641.151" r="225.281" transform="rotate(-43.5364 359.407 641.151)" fill="#FF7B36"/>
<circle cx="394.181" cy="717.471" r="225.281" transform="rotate(-43.5364 394.181 717.471)" fill="#B5FF00"/>
<circle cx="576.488" cy="280.054" r="180.982" transform="rotate(-43.5364 576.488 280.054)" fill="#008000"/>
<circle cx="576.488" cy="280.054" r="180.982" transform="rotate(-43.5364 576.488 280.054)" fill="#008000"/>
<circle cx="295.029" cy="48.1905" r="180.982" transform="rotate(-43.5364 295.029 48.1905)" fill="#DE4E1C"/>
<circle cx="295.029" cy="48.1905" r="180.982" transform="rotate(-43.5364 295.029 48.1905)" fill="#DE4E1C"/>
<circle cx="372.648" cy="213.455" r="180.982" transform="rotate(-43.5364 372.648 213.455)" fill="#DE4E1C"/>
<circle cx="458.246" cy="547.804" r="173.075" transform="rotate(-43.5364 458.246 547.804)" fill="white" fill-opacity="0.4"/>
<circle cx="946.023" cy="333.983" r="312.013" transform="rotate(-43.5364 946.023 333.983)" fill="#9747FF"/>
<circle cx="946.023" cy="333.983" r="312.013" transform="rotate(-43.5364 946.023 333.983)" fill="#9747FF"/>
<circle cx="706.8" cy="471.525" r="312.013" transform="rotate(-43.5364 706.8 471.525)" fill="#9747FF"/>
<circle cx="706.8" cy="471.525" r="312.013" transform="rotate(-43.5364 706.8 471.525)" fill="#D34C1B"/>
<circle cx="839.3" cy="185.435" r="312.013" transform="rotate(-43.5364 839.3 185.435)" fill="#9747FF"/>
<circle cx="828.15" cy="173.695" r="312.013" transform="rotate(-43.5364 828.15 173.695)" fill="#FF8138"/>
<circle cx="714.833" cy="54.341" r="242.851" transform="rotate(-43.5364 714.833 54.341)" fill="#FFFF00"/>
<circle cx="652.918" cy="-42.4563" r="277.483" transform="rotate(-43.5364 652.918 -42.4563)" fill="#FFFF00"/>
</g>
<g filter="url(#filter1_n_97_5774)">
<rect x="0.539062" y="0.646729" width="984.33" height="546.557" fill="black" fill-opacity="0.1"/>
</g>
</g>
<defs>
<filter id="filter0_f_97_5774" x="-526.293" y="-781.628" width="2246.02" height="2186.07" filterUnits="userSpaceOnUse" color-interpolation-filters="sRGB">
<feFlood flood-opacity="0" result="BackgroundImageFix"/>
<feBlend mode="normal" in="SourceGraphic" in2="BackgroundImageFix" result="shape"/>
<feGaussianBlur stdDeviation="230.844" result="effect1_foregroundBlur_97_5774"/>
</filter>
<filter id="filter1_n_97_5774" x="0.539062" y="0.646729" width="984.33" height="546.557" filterUnits="userSpaceOnUse" color-interpolation-filters="sRGB">
<feFlood flood-opacity="0" result="BackgroundImageFix"/>
<feBlend mode="normal" in="SourceGraphic" in2="BackgroundImageFix" result="shape"/>
<feTurbulence type="fractalNoise" baseFrequency="0.82333570718765259 0.82333570718765259" stitchTiles="stitch" numOctaves="3" result="noise" seed="3217" />
<feColorMatrix in="noise" type="luminanceToAlpha" result="alphaNoise" />
<feComponentTransfer in="alphaNoise" result="coloredNoise1">
<feFuncA type="discrete" tableValues="1 1 1 1 1 1 1 1 1 1 1 1 1 1 1 1 1 1 1 1 1 1 1 1 1 1 1 1 1 1 1 1 1 1 1 1 1 1 1 1 1 1 1 1 1 1 1 1 1 1 1 0 0 0 0 0 0 0 0 0 0 0 0 0 0 0 0 0 0 0 0 0 0 0 0 0 0 0 0 0 0 0 0 0 0 0 0 0 0 0 0 0 0 0 0 0 0 0 0 0 "/>
</feComponentTransfer>
<feComposite operator="in" in2="shape" in="coloredNoise1" result="noise1Clipped" />
<feComponentTransfer in="alphaNoise" result="coloredNoise2">
<feFuncA type="discrete" tableValues="0 0 0 0 0 0 0 0 0 0 0 0 0 0 0 0 0 0 0 0 0 0 0 0 0 0 0 0 0 0 0 0 0 0 0 0 0 0 0 0 0 0 0 0 0 0 0 0 0 1 1 1 1 1 1 1 1 1 1 1 1 1 1 1 1 1 1 1 1 1 1 1 1 1 1 1 1 1 1 1 1 1 1 1 1 1 1 1 1 1 1 1 1 1 1 1 1 1 1 1 "/>
</feComponentTransfer>
<feComposite operator="in" in2="shape" in="coloredNoise2" result="noise2Clipped" />
<feFlood flood-color="rgba(0, 0, 0, 0.15)" result="color1Flood" />
<feComposite operator="in" in2="noise1Clipped" in="color1Flood" result="color1" />
<feFlood flood-color="rgba(255, 255, 255, 0.25)" result="color2Flood" />
<feComposite operator="in" in2="noise2Clipped" in="color2Flood" result="color2" />
<feMerge result="effect1_noise_97_5774">
<feMergeNode in="shape" />
<feMergeNode in="color1" />
<feMergeNode in="color2" />
</feMerge>
</filter>
<clipPath id="clip0_97_5774">
<rect width="984" height="547" fill="white" transform="translate(0.525391 0.778076)"/>
</clipPath>
</defs>
</svg>
