<svg width="985" height="548" viewBox="0 0 985 548" fill="none" xmlns="http://www.w3.org/2000/svg">
<g clip-path="url(#clip0_96_5550)">
<rect width="984" height="547" transform="translate(0.451172 0.40564)" fill="#1B1B1B"/>
<g filter="url(#filter0_f_96_5550)">
<circle cx="205.731" cy="88.6133" r="224.802" transform="rotate(0.740667 205.731 88.6133)" fill="#736EEF"/>
<circle cx="205.731" cy="88.6134" r="224.802" transform="rotate(0.740667 205.731 88.6134)" fill="#736EEF"/>
<circle cx="157.938" cy="380.616" r="224.802" transform="rotate(0.740667 157.938 380.616)" fill="#736EEF"/>
<circle cx="129.618" cy="459.369" r="224.802" transform="rotate(0.740667 129.618 459.369)" fill="#2017F2"/>
<circle cx="129.618" cy="459.369" r="224.802" transform="rotate(0.740667 129.618 459.369)" fill="#2017F2"/>
<circle cx="564.585" cy="273.859" r="180.597" transform="rotate(0.740667 564.585 273.859)" fill="#008000"/>
<circle cx="564.585" cy="273.858" r="180.597" transform="rotate(0.740667 564.585 273.858)" fill="#008000"/>
<circle cx="525.027" cy="-87.8723" r="180.597" transform="rotate(0.740667 525.027 -87.8723)" fill="#37D71D"/>
<circle cx="293.587" cy="382.78" r="172.707" transform="rotate(0.740667 293.587 382.78)" fill="white" fill-opacity="0.4"/>
<circle cx="293.585" cy="382.78" r="172.707" transform="rotate(0.740667 293.585 382.78)" fill="white" fill-opacity="0.4"/>
<circle cx="791.037" cy="569.826" r="311.35" transform="rotate(0.740667 791.037 569.826)" fill="#7CD4FD"/>
<circle cx="791.037" cy="569.825" r="311.35" transform="rotate(0.740667 791.037 569.825)" fill="#7CD4FD"/>
<circle cx="524.305" cy="501.437" r="311.35" transform="rotate(0.740667 524.305 501.437)" fill="#7CD4FD"/>
<circle cx="524.305" cy="501.437" r="311.35" transform="rotate(0.740667 524.305 501.437)" fill="#7CD4FD"/>
<circle cx="524.305" cy="501.438" r="311.35" transform="rotate(0.740667 524.305 501.438)" fill="#7CD4FD"/>
<circle cx="818.272" cy="389.345" r="311.35" transform="rotate(0.740667 818.272 389.345)" fill="#7CD4FD"/>
<circle cx="818.481" cy="373.19" r="311.35" transform="rotate(0.740667 818.481 373.19)" fill="#7CD4FD"/>
<circle cx="818.483" cy="373.19" r="311.35" transform="rotate(0.740667 818.483 373.19)" fill="#7CD4FD"/>
<circle cx="820.672" cy="208.977" r="242.335" transform="rotate(0.740667 820.672 208.977)" fill="#FF6600"/>
<circle cx="843.873" cy="96.6873" r="276.894" transform="rotate(0.740667 843.873 96.6873)" fill="#F1BF33"/>
<circle cx="843.871" cy="96.6871" r="276.894" transform="rotate(0.740667 843.871 96.6871)" fill="#F1BF33"/>
</g>
<g filter="url(#filter1_n_96_5550)">
<rect x="-0.548828" y="0.40564" width="984" height="546" fill="black" fill-opacity="0.1"/>
</g>
</g>
<defs>
<filter id="filter0_f_96_5550" x="-555.892" y="-729.176" width="2146.43" height="2071.06" filterUnits="userSpaceOnUse" color-interpolation-filters="sRGB">
<feFlood flood-opacity="0" result="BackgroundImageFix"/>
<feBlend mode="normal" in="SourceGraphic" in2="BackgroundImageFix" result="shape"/>
<feGaussianBlur stdDeviation="230.353" result="effect1_foregroundBlur_96_5550"/>
</filter>
<filter id="filter1_n_96_5550" x="-0.548828" y="0.40564" width="984" height="546" filterUnits="userSpaceOnUse" color-interpolation-filters="sRGB">
<feFlood flood-opacity="0" result="BackgroundImageFix"/>
<feBlend mode="normal" in="SourceGraphic" in2="BackgroundImageFix" result="shape"/>
<feTurbulence type="fractalNoise" baseFrequency="0.82333570718765259 0.82333570718765259" stitchTiles="stitch" numOctaves="3" result="noise" seed="3217" />
<feColorMatrix in="noise" type="luminanceToAlpha" result="alphaNoise" />
<feComponentTransfer in="alphaNoise" result="coloredNoise1">
<feFuncA type="discrete" tableValues="1 1 1 1 1 1 1 1 1 1 1 1 1 1 1 1 1 1 1 1 1 1 1 1 1 1 1 1 1 1 1 1 1 1 1 1 1 1 1 1 1 1 1 1 1 1 1 1 1 1 1 0 0 0 0 0 0 0 0 0 0 0 0 0 0 0 0 0 0 0 0 0 0 0 0 0 0 0 0 0 0 0 0 0 0 0 0 0 0 0 0 0 0 0 0 0 0 0 0 0 "/>
</feComponentTransfer>
<feComposite operator="in" in2="shape" in="coloredNoise1" result="noise1Clipped" />
<feComponentTransfer in="alphaNoise" result="coloredNoise2">
<feFuncA type="discrete" tableValues="0 0 0 0 0 0 0 0 0 0 0 0 0 0 0 0 0 0 0 0 0 0 0 0 0 0 0 0 0 0 0 0 0 0 0 0 0 0 0 0 0 0 0 0 0 0 0 0 0 1 1 1 1 1 1 1 1 1 1 1 1 1 1 1 1 1 1 1 1 1 1 1 1 1 1 1 1 1 1 1 1 1 1 1 1 1 1 1 1 1 1 1 1 1 1 1 1 1 1 1 "/>
</feComponentTransfer>
<feComposite operator="in" in2="shape" in="coloredNoise2" result="noise2Clipped" />
<feFlood flood-color="rgba(0, 0, 0, 0.15)" result="color1Flood" />
<feComposite operator="in" in2="noise1Clipped" in="color1Flood" result="color1" />
<feFlood flood-color="rgba(255, 255, 255, 0.25)" result="color2Flood" />
<feComposite operator="in" in2="noise2Clipped" in="color2Flood" result="color2" />
<feMerge result="effect1_noise_96_5550">
<feMergeNode in="shape" />
<feMergeNode in="color1" />
<feMergeNode in="color2" />
</feMerge>
</filter>
<clipPath id="clip0_96_5550">
<rect width="984" height="547" fill="white" transform="translate(0.451172 0.40564)"/>
</clipPath>
</defs>
</svg>
