<svg width="56" height="56" viewBox="0 0 56 56" fill="none" xmlns="http://www.w3.org/2000/svg">
<path d="M21.1361 39.3364H35.3799V42.1852H21.1361V39.3364ZM23.9848 45.0339H32.5311V47.8827H23.9848V45.0339ZM28.258 8C24.4803 8 20.8573 9.50068 18.1861 12.1719C15.5148 14.8432 14.0141 18.4661 14.0141 22.2438C13.9178 24.3139 14.3144 26.3773 15.1712 28.2643C16.028 30.1512 17.3205 31.8077 18.9425 33.0976C20.3669 34.4223 21.1361 35.1772 21.1361 36.4876H23.9848C23.9848 33.8668 22.4038 32.3997 20.8654 30.9895C19.5341 29.97 18.4731 28.6397 17.7753 27.115C17.0776 25.5903 16.7643 23.9177 16.8629 22.2438C16.8629 19.2217 18.0635 16.3233 20.2004 14.1863C22.3374 12.0493 25.2358 10.8488 28.258 10.8488C31.2801 10.8488 34.1785 12.0493 36.3155 14.1863C38.4525 16.3233 39.653 19.2217 39.653 22.2438C39.75 23.919 39.4345 25.5923 38.7342 27.1171C38.0339 28.6419 36.9702 29.9716 35.6363 30.9895C34.1122 32.4139 32.5311 33.8383 32.5311 36.4876H35.3799C35.3799 35.1772 36.1348 34.4223 37.5734 33.0834C39.1943 31.7957 40.4863 30.1416 41.3431 28.2571C42.1999 26.3727 42.597 24.3117 42.5018 22.2438C42.5018 20.3733 42.1334 18.5211 41.4175 16.7929C40.7017 15.0648 39.6525 13.4946 38.3299 12.1719C37.0072 10.8493 35.437 9.80007 33.7088 9.08425C31.9807 8.36843 30.1285 8 28.258 8Z" fill="black"/>
</svg>
