<svg width="647" height="18" viewBox="0 0 647 18" fill="none" xmlns="http://www.w3.org/2000/svg">
<path d="M0 7.18889C0 3.21857 3.21858 0 7.18889 0H639.811C643.781 0 647 3.21858 647 7.18889V17.9722H0V7.18889Z" fill="#F3F5F7"/>
<path d="M13.4815 8.98685C13.4815 10.4757 12.2745 11.6827 10.7857 11.6827C9.29681 11.6827 8.08984 10.4757 8.08984 8.98685C8.08984 7.49798 9.29681 6.29102 10.7857 6.29102C12.2745 6.29102 13.4815 7.49798 13.4815 8.98685Z" fill="#F3605C"/>
<path d="M24.2667 8.98685C24.2667 10.4757 23.0597 11.6827 21.5708 11.6827C20.082 11.6827 18.875 10.4757 18.875 8.98685C18.875 7.49798 20.082 6.29102 21.5708 6.29102C23.0597 6.29102 24.2667 7.49798 24.2667 8.98685Z" fill="#F8BE39"/>
<path d="M35.044 8.98685C35.044 10.4757 33.837 11.6827 32.3482 11.6827C30.8593 11.6827 29.6523 10.4757 29.6523 8.98685C29.6523 7.49798 30.8593 6.29102 32.3482 6.29102C33.837 6.29102 35.044 7.49798 35.044 8.98685Z" fill="#50C845"/>
</svg>
