<svg width="161" height="28" viewBox="0 0 161 28" fill="none" xmlns="http://www.w3.org/2000/svg">
<path d="M0.520199 0.00177765L48.3376 7.58437L47.8174 11.0547L0 3.4728L0.520199 0.00177765Z" fill="white"/>
<path d="M46.033 12.2344H17.7422H46.033Z" fill="white"/>
<path d="M46.033 12.2344H17.7422" stroke="white" stroke-width="3.41338" stroke-miterlimit="10"/>
<path d="M45.7525 15.1332L10.9531 23.0508L45.7525 15.1332Z" fill="white"/>
<path d="M45.7525 15.1332L10.9531 23.0508" stroke="white" stroke-width="3.41338" stroke-miterlimit="10"/>
<path d="M45.7477 18.6638L28.3477 24.8164L45.7477 18.6638Z" fill="white"/>
<path d="M45.7477 18.6638L28.3477 24.8164" stroke="white" stroke-width="3.41338" stroke-miterlimit="10"/>
<path d="M108.349 23.9053C107.406 24.0605 106.099 24.1188 105.203 24.1364C102.962 24.1806 101.288 23.1074 101.287 20.1112L101.391 14.1496H108.517L108.58 10.4272H101.455L101.569 3.8672H97.677L97.3964 19.8998C97.3541 22.4641 98.034 24.4981 99.4178 25.9456C100.79 27.3812 102.79 28 105.203 28C106.399 28 107.594 27.9052 108.902 27.6811L108.349 23.9053Z" fill="white"/>
<path d="M95.4687 10.4255H84.9739L84.9746 10.4311H84.9739L84.6797 27.7539H88.5716L88.8024 14.1479H95.4052L95.4687 10.4255Z" fill="white"/>
<path d="M72.9289 24.2228C68.7277 24.2228 68.0709 20.7574 68.0709 18.944C68.0709 17.1298 68.7277 13.6651 72.9289 13.6651C76.3832 13.6651 77.7868 15.9829 77.7868 18.944C77.7868 21.9051 76.3832 24.2228 72.9289 24.2228ZM77.7943 10.428L77.7731 11.6894H77.3321C76.1927 10.6555 74.6397 9.94193 72.5193 9.94193C67.8593 9.94193 64.1797 13.2268 64.1797 18.944C64.1797 24.6611 67.8593 27.9453 72.5193 27.9453C74.4246 27.9453 75.8664 27.3652 76.9683 26.4992H77.5219L77.5007 27.7508H81.3927L81.6862 10.428H77.7943Z" fill="white"/>
<path d="M55.1433 1.09123H44.1037L44.043 5.30534H55.1433C57.4466 5.30534 60.0558 6.13341 60.0558 10.0778C60.0558 14.0229 57.4466 14.851 55.1433 14.851H48.41L48.5152 7.61257L44.4198 7.54935L44.1269 27.7539H48.223L48.3493 19.0651H55.1433C60.6989 19.0651 64.2884 15.5379 64.2884 10.0778C64.2884 4.61844 60.6989 1.09123 55.1433 1.09123Z" fill="white"/>
<path d="M137.036 10.4255L137.037 10.4311L136.742 27.7539H140.634L140.928 10.4255H137.036Z" fill="white"/>
<path d="M118.257 24.2228C114.056 24.2228 113.399 20.7574 113.399 18.944C113.399 17.1298 114.056 13.6651 118.257 13.6651C121.711 13.6651 123.115 15.9829 123.115 18.944C123.115 21.9051 121.711 24.2228 118.257 24.2228ZM123.123 10.428L123.101 11.6894H122.66C121.521 10.6555 119.968 9.94193 117.847 9.94193C113.187 9.94193 109.508 13.2268 109.508 18.944C109.508 24.6611 113.187 27.9453 117.847 27.9453C119.753 27.9453 121.195 27.3652 122.296 26.4992H122.85L122.829 27.7508H126.721L127.015 10.428H123.123Z" fill="white"/>
<path d="M152.386 24.3633C148.125 24.3633 147.664 20.5313 147.664 18.944C147.664 17.3567 148.125 13.5246 152.386 13.5246C156.647 13.5246 157.108 17.3567 157.108 18.944C157.108 20.5313 156.647 24.3633 152.386 24.3633ZM152.386 9.94263C147.235 9.94263 143.773 13.5604 143.773 18.944C143.773 24.3275 147.235 27.9453 152.386 27.9453C157.538 27.9453 160.999 24.3275 160.999 18.944C160.999 13.5604 157.538 9.94263 152.386 9.94263Z" fill="white"/>
<path d="M140.955 7.80078H137.062L137.13 3.86621H141.022L140.955 7.80078Z" fill="white"/>
<path d="M133.721 27.7539H129.828L129.896 23.8193H133.788L133.721 27.7539Z" fill="white"/>
</svg>
