<svg width="99" height="28" viewBox="0 0 99 28" fill="none" xmlns="http://www.w3.org/2000/svg">
<g clip-path="url(#clip0_57_2687)">
<rect width="28" height="28" rx="6" fill="#1B1B1B"/>
<path d="M19.1944 7H13.2595L13.2185 9.1995H19.4442C21.2448 9.1995 22.3744 10.0197 22.3744 11.8091C22.3744 13.0356 21.7108 14.4187 19.1981 14.4187H16.5438L16.6109 10.5229L-1 7.81269V9.62076L14.445 11.9992V12.495H2.04202V14.2845H14.404V14.6759L-0.992544 18.0795V19.91L14.3704 16.5138V16.9164L7.3171 19.3172L7.89867 21.0097L14.3257 18.8028L14.281 21.2371H16.4245L16.5065 16.5622H19.1721C22.9 16.5622 24.5851 14.2323 24.5851 11.7979C24.5776 9.1995 22.8404 7 19.1944 7Z" fill="white"/>
</g>
<path d="M68.5377 18.5221C69.1656 18.5135 69.7907 18.436 70.4017 18.2909L70.1072 16.427C69.5931 16.55 69.0664 16.6125 68.5377 16.6134C67.1807 16.6134 66.3009 16.043 66.3009 14.4176L66.3606 11.0811H70.178L70.2116 9.21707H66.4165L66.4799 5.73514H64.4295L64.2729 14.3393C64.235 14.9072 64.3148 15.4768 64.5073 16.0124C64.6997 16.5481 65.0007 17.0382 65.3913 17.4522C66.1295 18.194 67.2218 18.5221 68.5377 18.5221Z" fill="#1B1B1B"/>
<path d="M59.5869 11.0736H63.1918L63.2254 9.1947H57.5439L57.3836 18.4326H59.4601L59.5869 11.0736Z" fill="#1B1B1B"/>
<path d="M85.9213 9.1947H87.9716L87.8113 18.4326H85.761L85.8467 9.19842H85.9213V9.1947ZM85.9809 5.71277L85.9436 7.80043H87.9977L88.0313 5.71277H85.9809Z" fill="#1B1B1B"/>
<path d="M84.0386 16.2667H81.8764L81.8391 18.4326H84.0014L84.0386 16.2667Z" fill="#1B1B1B"/>
<path d="M50.9529 18.5743C51.8481 18.6058 52.7238 18.3073 53.4134 17.7355H53.6184V18.4326H55.7247L55.8887 9.1947H53.76V9.87691H53.5923C52.8916 9.31824 52.0205 9.01689 51.1244 9.0232C48.5782 8.97847 46.4644 10.6821 46.4122 13.7167C46.36 16.7513 48.4067 18.5743 50.9529 18.5743ZM48.5334 13.7279C48.5334 12.7624 48.9398 10.9319 51.2325 10.9729C53.1188 11.0028 53.8644 12.2479 53.8421 13.8211C53.8197 15.3943 53.0256 16.6059 51.1393 16.5761C48.8429 16.5425 48.5148 14.6972 48.5334 13.7354V13.7279Z" fill="#1B1B1B"/>
<path d="M41.0216 9.01948C40.1267 8.99041 39.2519 9.28863 38.5611 9.85828H38.3561V9.16487H36.2311L36 22.2873H38.1249L38.2032 17.7168H38.3747C39.0755 18.2752 39.9466 18.5766 40.8426 18.5705C43.3851 18.6153 45.4989 16.9079 45.5511 13.8733C45.6033 10.8387 43.5678 9.01948 41.0216 9.01948ZM43.4448 13.8658C43.4261 14.8277 43.0347 16.6618 40.742 16.6208C38.8556 16.5873 38.11 15.3459 38.1324 13.7726C38.1548 12.1994 38.9451 10.9841 40.8315 11.0177C43.1316 11.055 43.4597 12.9003 43.4448 13.8621V13.8658Z" fill="#1B1B1B"/>
<path d="M75.3636 18.5743C76.2521 18.6055 77.1206 18.3067 77.8017 17.7355H78.0291V18.4326H80.1541L80.3144 9.1947H78.1894V9.87691H78.018C77.318 9.31689 76.4464 9.01537 75.55 9.0232C73.0076 8.97847 70.8938 10.6821 70.8416 13.7167C70.7894 16.7513 72.8174 18.5743 75.3636 18.5743ZM72.9405 13.7279C72.9405 12.7624 73.3505 10.9319 75.6432 10.9729C77.5296 11.0028 78.2752 12.2479 78.2528 13.8211C78.2304 15.3943 77.4364 16.6059 75.55 16.5761C73.2462 16.5425 72.9255 14.6972 72.9405 13.7354V13.7279Z" fill="#1B1B1B"/>
<path d="M93.75 18.5743C96.3596 18.619 98.5069 16.9116 98.5591 13.8808C98.6113 10.8499 96.5162 9.0344 93.9178 9.0344C91.3082 8.98966 89.1646 10.6971 89.1087 13.7316C89.0528 16.7662 91.1404 18.5743 93.75 18.5743ZM91.1628 13.7279C91.1628 12.74 91.5729 10.8611 93.8842 10.9021C95.7817 10.9357 96.5348 12.2106 96.4938 13.8248C96.4528 15.4391 95.6736 16.6842 93.7724 16.6506C91.4573 16.5985 91.1404 14.7345 91.1404 13.7316L91.1628 13.7279Z" fill="#1B1B1B"/>
<defs>
<clipPath id="clip0_57_2687">
<rect width="28" height="28" rx="6" fill="white"/>
</clipPath>
</defs>
</svg>
