<svg width="119" height="20" viewBox="0 0 119 20" fill="none" xmlns="http://www.w3.org/2000/svg">
<path d="M0.381775 -0.000446796L35.4751 5.41572L35.0933 7.89453L0 2.47887L0.381775 -0.000446796Z" fill="#1D1B1B"/>
<path d="M33.7861 8.73633H13.0234" stroke="#1D1B1B" stroke-width="2.50509" stroke-miterlimit="10"/>
<path d="M33.5745 10.8094L8.03516 16.4648" stroke="#1D1B1B" stroke-width="2.50509" stroke-miterlimit="10"/>
<path d="M33.5746 13.3338L20.8047 17.7285" stroke="#1D1B1B" stroke-width="2.50509" stroke-miterlimit="10"/>
<path d="M79.5163 17.0752C78.8243 17.1861 77.8649 17.2277 77.2071 17.2402C75.5627 17.2719 74.3337 16.5053 74.3332 14.3651L74.4094 10.1068H79.6395L79.6856 7.4479H74.4565L74.5401 2.76219H71.6838L71.4779 14.2141C71.4469 16.0457 71.9459 17.4986 72.9614 18.5326C73.9685 19.558 75.4365 20 77.2071 20C78.0848 20 78.9616 19.9323 79.9216 19.7722L79.5163 17.0752Z" fill="#1D1B1B"/>
<path d="M70.0665 7.44866H62.3644L62.3649 7.45267H62.3644L62.1484 19.8262H65.0047L65.1741 10.1076H70.0199L70.0665 7.44866Z" fill="#1D1B1B"/>
<path d="M53.5187 17.3059C50.4354 17.3059 49.9535 14.8306 49.9535 13.5353C49.9535 12.2394 50.4354 9.76463 53.5187 9.76463C56.0538 9.76463 57.0839 11.4202 57.0839 13.5353C57.0839 15.6504 56.0538 17.3059 53.5187 17.3059ZM57.0894 7.45238L57.0739 8.3534H56.7503C55.9141 7.61493 54.7742 7.10522 53.2181 7.10522C49.7981 7.10522 47.0977 9.45158 47.0977 13.5353C47.0977 17.619 49.7981 19.9648 53.2181 19.9648C54.6164 19.9648 55.6746 19.5505 56.4832 18.9319H56.8895L56.874 19.8259H59.7303L59.9458 7.45238H57.0894Z" fill="#1D1B1B"/>
<path d="M40.4669 0.781298H32.3649L32.3203 3.79139H40.4669C42.1573 3.79139 44.0722 4.38288 44.0722 7.20033C44.0722 10.0183 42.1573 10.6098 40.4669 10.6098H35.5253L35.6025 5.43942L32.5969 5.39427L32.3819 19.8262H35.388L35.4807 13.6199H40.4669C44.5441 13.6199 47.1785 11.1004 47.1785 7.20033C47.1785 3.30075 44.5441 0.781298 40.4669 0.781298Z" fill="#1D1B1B"/>
<path d="M100.571 7.44866L100.572 7.45267L100.355 19.8262H103.212L103.428 7.44866H100.571Z" fill="#1D1B1B"/>
<path d="M86.7921 17.3059C83.7094 17.3059 83.2269 14.8306 83.2269 13.5353C83.2269 12.2394 83.7094 9.76463 86.7921 9.76463C89.3273 9.76463 90.3574 11.4202 90.3574 13.5353C90.3574 15.6504 89.3273 17.3059 86.7921 17.3059ZM90.3634 7.45238L90.3474 8.3534H90.0237C89.1875 7.61493 88.0477 7.10522 86.4915 7.10522C83.0716 7.10522 80.3711 9.45158 80.3711 13.5353C80.3711 17.619 83.0716 19.9648 86.4915 19.9648C87.8899 19.9648 88.948 19.5505 89.7567 18.9319H90.163L90.1474 19.8259H93.0038L93.2197 7.45238H90.3634Z" fill="#1D1B1B"/>
<path d="M111.836 17.4063C108.709 17.4063 108.371 14.6691 108.371 13.5353C108.371 12.4015 108.709 9.6643 111.836 9.6643C114.964 9.6643 115.302 12.4015 115.302 13.5353C115.302 14.6691 114.964 17.4063 111.836 17.4063ZM111.836 7.10571C108.056 7.10571 105.516 9.68988 105.516 13.5353C105.516 17.3807 108.056 19.9648 111.836 19.9648C115.617 19.9648 118.157 17.3807 118.157 13.5353C118.157 9.68988 115.617 7.10571 111.836 7.10571Z" fill="#1D1B1B"/>
<path d="M103.447 5.57227H100.59L100.639 2.76184H103.496L103.447 5.57227Z" fill="#1D1B1B"/>
<path d="M98.1381 19.8262H95.2812L95.3309 17.0157H98.1872L98.1381 19.8262Z" fill="#1D1B1B"/>
</svg>
