<svg width="122" height="127" viewBox="0 0 122 127" fill="none" xmlns="http://www.w3.org/2000/svg">
<path fill-rule="evenodd" clip-rule="evenodd" d="M78.7848 68.4932L95.0495 57.65L93.6616 55.5681L76.2148 67.1993V67.8688C76.2148 68.3156 76.3362 69.0946 76.4969 69.9964C76.6664 70.9474 76.9067 72.1735 77.1911 73.5971C77.303 74.1575 77.4219 74.7496 77.5464 75.3692C78.0561 77.9062 78.6588 80.906 79.2543 84.0966C80.7435 92.0757 82.1532 101.077 81.9704 106.863L84.3218 107.497L96.6745 84.6119L95.9431 83.9536C95.6776 83.7146 95.3261 83.1156 94.9877 82.2572C94.6849 81.4891 94.4591 80.6897 94.341 80.1758C94.2259 79.0279 94.4004 78.187 94.6952 77.5647C94.9963 76.9293 95.4588 76.446 96.0208 76.0773C97.1597 75.3301 98.647 75.0981 99.6288 75.1224C101.418 75.3827 102.278 76.332 102.729 77.3851C103.222 78.5349 103.23 79.8512 103.126 80.578L103.113 80.666V80.755C103.113 81.6125 102.573 82.3169 101.397 83.1915C101.032 83.4628 100.677 83.7017 100.299 83.9561C100.055 84.1198 99.8024 84.29 99.5312 84.4793C98.8939 84.9243 98.2105 85.4411 97.6677 86.0614L97.5169 86.2338L87.5533 112.971L89.7265 114.159C90.4078 113.25 95.1255 108.058 101.294 102.28C107.464 96.5001 114.919 90.2952 121.058 87.2558L122 86.7896L121.703 85.7816C120.712 82.4096 119.456 77.4924 118.405 73.0364C117.347 68.5471 116.524 64.637 116.367 63.2268L113.88 63.5031C114.057 65.0954 114.923 69.1672 115.97 73.6106C116.927 77.6715 118.059 82.1354 119.015 85.4927C112.726 88.8386 105.474 94.9355 99.5836 100.453C96.7392 103.118 94.1766 105.681 92.1583 107.779L99.6956 87.5528C100.016 87.225 100.441 86.896 100.963 86.531C101.159 86.3943 101.381 86.2449 101.613 86.0882C102.034 85.8042 102.49 85.4966 102.89 85.1994C104.135 84.2733 105.574 82.9386 105.614 80.846C105.749 79.8081 105.736 78.0494 105.029 76.3994C104.266 74.6182 102.701 73.0123 99.9027 72.6342L99.8419 72.626L99.7806 72.6238C98.4674 72.576 96.3776 72.8506 94.6482 73.9852C93.7642 74.5652 92.9615 75.38 92.434 76.4934C91.906 77.6079 91.6895 78.9458 91.8607 80.5153L91.8682 80.5838L91.8832 80.651C92.0202 81.2676 92.2883 82.2323 92.6599 83.1749C92.8932 83.7665 93.2041 84.4484 93.6036 85.0334L84.3531 102.171C83.9727 96.5576 82.8475 89.7106 81.714 83.6375C81.115 80.4282 80.5081 77.4072 79.9982 74.8695C79.8741 74.252 79.7558 73.6631 79.6448 73.107C79.3603 71.6825 79.1246 70.4798 78.9603 69.5575C78.8815 69.1153 78.824 68.7629 78.7848 68.4932Z" fill="#1B1B1B"/>
<path fill-rule="evenodd" clip-rule="evenodd" d="M43.0534 16.0279C43.216 13.8777 43.2576 10.6137 42.8603 7.59137C42.6572 6.04714 42.3333 4.51542 41.8255 3.21105C41.3273 1.93157 40.5898 0.709217 39.4555 0.000244141L38.1293 2.12208C38.5964 2.41397 39.0766 3.04738 39.4938 4.1189C39.9013 5.16552 40.1904 6.48001 40.3794 7.91752C40.757 10.7895 40.7098 13.9507 40.5479 15.9744L40.5362 16.1212L40.5588 16.2668C41.6625 23.3486 38.1961 28.2804 33.1756 31.6704C28.1076 35.0924 21.5868 36.8241 17.127 37.3512L16.9572 37.3713L16.799 37.4362C4.8272 42.3477 0.320159 48.976 0.0164973 55.5569C-0.27947 61.9711 3.46105 67.8358 6.88097 71.2557L6.98383 71.3586L7.10753 71.4351C10.6685 73.6376 14.0255 75.4154 17.1739 76.8158C16.788 77.6318 16.4381 78.4095 16.1254 79.1329L16.0978 79.1969L16.0774 79.2637C12.6022 90.637 12.2974 98.9699 14.1725 104.929C16.0722 110.965 20.1654 114.424 25.0716 116.065C29.9178 117.686 35.5214 117.53 40.6048 116.499C44.8515 115.639 48.8368 114.147 51.8418 112.462C52.6382 117.03 54.1888 120.343 56.318 122.608C58.7542 125.199 61.8274 126.29 65.0185 126.425C71.2889 126.69 78.176 123.286 82.5531 120.184L81.1063 118.143C76.8926 121.129 70.5683 124.156 65.1244 123.925C62.4583 123.812 60.0487 122.923 58.141 120.894C56.212 118.842 54.6777 115.499 54.0467 110.256L53.8022 108.225L52.1055 109.368C49.3267 111.241 44.9363 113.069 40.1078 114.047C35.2763 115.026 30.152 115.126 25.8653 113.692C21.6385 112.278 18.1939 109.372 16.5593 104.178C14.9035 98.9158 15.0639 91.172 18.4499 80.0617C18.7597 79.3469 19.104 78.5848 19.4812 77.7901C30.5982 82.2293 38.921 81.7918 44.2337 78.7713C51.4683 74.6581 52.6208 66.0011 47.4975 60.047L47.4087 59.9438L47.2998 59.8622C43.5663 57.062 39.9141 56.1827 36.4614 56.7427C33.0548 57.2953 30.0121 59.2214 27.3912 61.7067C23.602 65.2998 20.5111 70.2377 18.2808 74.5724C15.2707 73.2381 12.0272 71.5287 8.54888 69.3844C5.41297 66.206 2.26833 61.0397 2.516 55.6723C2.75754 50.4376 6.26809 44.5021 17.593 39.8152C22.3034 39.2345 29.1429 37.4125 34.5758 33.7441C40.0901 30.0208 44.2802 24.2809 43.0534 16.0279ZM20.5955 75.5437C31.1605 79.7222 38.606 79.0926 42.997 76.5961C48.7699 73.3139 49.7221 66.5807 45.6882 61.7818C42.459 59.3953 39.5172 58.7819 36.862 59.2126C34.1305 59.6557 31.5277 61.2325 29.1129 63.5223C25.6399 66.8156 22.7377 71.4088 20.5955 75.5437Z" fill="#1B1B1B"/>
</svg>
